<?xml version="1.0" encoding="utf-8"?>
<!-- Generator: Adobe Illustrator 27.5.0, SVG Export Plug-In . SVG Version: 6.00 Build 0)  -->
<svg version="1.1" xmlns="http://www.w3.org/2000/svg" xmlns:xlink="http://www.w3.org/1999/xlink" x="0px" y="0px"
	 viewBox="0 0 750 500" style="enable-background:new 0 0 750 500;" xml:space="preserve">
<g id="BACKGROUND">
	<rect id="XMLID_4_" style="fill:#4E7C9B;" width="750.287" height="500"/>
</g>
<g id="OBJECTS">
	<g id="XMLID_1_">
		<defs>
			<rect id="XMLID_14_" width="100%" height="100%"/>
		</defs>
		<clipPath id="XMLID_00000165222821892021714030000010396853330760532889_">
			<use xlink:href="#XMLID_14_"  style="overflow:visible;"/>
		</clipPath>
		<g id="XMLID_3_" style="clip-path:url(#XMLID_00000165222821892021714030000010396853330760532889_);">
			<g id="XMLID_32_">
				<g id="XMLID_31_">
					<g id="XMLID_29_">
						<g id="XMLID_35_">
							<g id="XMLID_382_">
								
									<rect id="XMLID_385_" x="-188.621" y="-33.199" transform="matrix(0.9997 0.0226 -0.0226 0.9997 -0.1138 -0.0414)" style="fill:#DFEDEF;" width="380.793" height="56.283"/>
								
									<rect id="XMLID_384_" x="-188.85" y="-12.968" transform="matrix(0.9997 0.0226 -0.0226 0.9997 0.1146 -0.0336)" style="fill:#C6D9E0;" width="380.793" height="36.049"/>
							</g>
							<g id="XMLID_34_">
								
									<rect id="XMLID_22_" x="-159.775" y="-0.765" transform="matrix(0.9997 0.0226 -0.0226 0.9997 0.6261 -0.6846)" style="fill:#DFEDEF;" width="380.793" height="56.283"/>
								
									<rect id="XMLID_24_" x="-160.003" y="19.467" transform="matrix(0.9997 0.0226 -0.0226 0.9997 0.8545 -0.6769)" style="fill:#C6D9E0;" width="380.793" height="36.049"/>
							</g>
							<g id="XMLID_33_">
								
									<rect id="XMLID_20_" x="-125.481" y="30.896" transform="matrix(0.9999 0.0116 -0.0116 0.9999 0.6865 -0.7462)" style="fill:#DFEDEF;" width="380.793" height="56.283"/>
								
									<rect id="XMLID_23_" x="-125.555" y="43.714" transform="matrix(0.9999 0.0116 -0.0116 0.9999 0.7606 -0.7449)" style="fill:#C6D9E0;" width="380.793" height="43.465"/>
							</g>
							<g id="XMLID_28_">
								
									<rect id="XMLID_11_" x="-86.256" y="55.031" transform="matrix(1 -0.0073 0.0073 1 -0.6066 0.7653)" style="fill:#DFEDEF;" width="380.794" height="56.283"/>
								
									<rect id="XMLID_10_" x="-86.2" y="70.311" transform="matrix(1 -0.0073 0.0073 1 -0.6626 0.7659)" style="fill:#C6D9E0;" width="380.793" height="41.003"/>
							</g>
							<g id="XMLID_27_">
								
									<rect id="XMLID_9_" x="-48.648" y="81.743" transform="matrix(0.9994 -0.0332 0.0332 0.9994 -4.0003 4.7766)" style="fill:#DFEDEF;" width="380.793" height="82.061"/>
								
									<rect id="XMLID_25_" x="-48.295" y="102.98" transform="matrix(0.9994 -0.0332 0.0332 0.9994 -4.3527 4.7942)" style="fill:#C6D9E0;" width="380.793" height="60.818"/>
							</g>
						</g>
						<g id="XMLID_42_">
							<g id="XMLID_365_">
								
									<rect id="XMLID_368_" x="515.93" y="-9.81" transform="matrix(-0.9988 0.0484 -0.0484 -0.9988 1412.7142 2.4804)" style="fill:#DFEDEF;" width="380.793" height="56.283"/>
								
									<rect id="XMLID_367_" x="516.42" y="10.413" transform="matrix(-0.9988 0.0484 -0.0484 -0.9988 1414.1809 22.6551)" style="fill:#C6D9E0;" width="380.793" height="36.049"/>
							</g>
							<g id="XMLID_349_">
								
									<rect id="XMLID_360_" x="482.464" y="22.726" transform="matrix(-0.9993 0.0373 -0.0373 -0.9993 1347.152 76.5718)" style="fill:#DFEDEF;" width="380.793" height="56.283"/>
								
									<rect id="XMLID_350_" x="482.704" y="35.539" transform="matrix(-0.9993 0.0373 -0.0373 -0.9993 1347.8698 89.3678)" style="fill:#C6D9E0;" width="380.793" height="43.465"/>
							</g>
							<g id="XMLID_345_">
								
									<rect id="XMLID_348_" x="443.875" y="47.864" transform="matrix(-0.9998 0.0185 -0.0185 -0.9998 1269.8391 140.2844)" style="fill:#DFEDEF;" width="380.793" height="56.283"/>
								
									<rect id="XMLID_347_" x="444.016" y="63.143" transform="matrix(-0.9998 0.0185 -0.0185 -0.9998 1270.2623 155.5578)" style="fill:#C6D9E0;" width="380.793" height="41.003"/>
							</g>
							<g id="XMLID_43_">
								
									<rect id="XMLID_123_" x="407.301" y="75.533" transform="matrix(-1 -0.0074 0.0074 -1 1194.5123 237.5639)" style="fill:#DFEDEF;" width="380.793" height="82.061"/>
								
									<rect id="XMLID_84_" x="407.222" y="96.776" transform="matrix(-1 -0.0074 0.0074 -1 1194.2756 258.8057)" style="fill:#C6D9E0;" width="380.793" height="60.818"/>
							</g>
						</g>
					</g>
					<g id="XMLID_6_">
						<polygon id="XMLID_7_" style="fill:#242D38;" points="363.807,243.066 0.287,242.867 0.287,124.467 362.372,99.94 						"/>
						<polygon id="XMLID_8_" style="fill:#4B5866;" points="750.287,244.889 362.372,244.889 362.372,99.94 750.287,104.643 						
							"/>
					</g>
					<g id="XMLID_12_">
						<polygon id="XMLID_13_" style="fill:#FCA2B0;" points="750.287,500 0.287,500 0.287,242.867 362.344,189.39 750.287,202.736 
													"/>
						<polygon id="XMLID_386_" style="fill:#E4F5F9;" points="750.287,500 0.287,500 0.287,279.511 362.372,206.532 
							750.287,223.746 						"/>
					</g>
				</g>
			</g>
			<g id="XMLID_399_">
				<path id="XMLID_986_" style="fill:#F7AA3C;" d="M528.066,85.692c0,3.304-2.678,5.982-5.981,5.982
					c-3.304,0-5.982-2.678-5.982-5.982c0-3.303,2.678-5.981,5.982-5.981C525.388,79.711,528.066,82.389,528.066,85.692z"/>
				<path id="XMLID_985_" style="fill:#A2D3DB;" d="M663.884,275.455l-6.558-0.456c0.281-0.588,0.428-1.19,0.428-1.803
					c0-6.47-16.223-11.716-36.236-11.716c-16.67,0-30.702,3.641-34.927,8.597l-114.029-7.934L151.731,375.815
					c-50.455,2.01-89.854,19.003-89.854,39.671c0,22.02,44.724,39.87,99.894,39.87c43.49,0,80.483-11.094,94.199-26.577
					l176.792,35.16L663.884,275.455z"/>
				<g id="XMLID_905_">
					<path id="XMLID_1251_" style="fill:#34275B;" d="M614.745,37.37c3.473-6.811,12.469-3.252,15.955,0
						c3.486,3.251,2.961,19.876,6.723,22.282c3.763,2.406,9.45-0.875,10.981,1.75c1.531,2.625-0.425,5.333-3.5,6.073
						c-3.075,0.74,1.969,1.146-0.656,5.302c-2.625,4.156-18.19,6.56-23.532-1.751c-5.342-8.311,0.782-18.373-1.733-24.06
						C616.468,41.277,614.745,37.37,614.745,37.37z"/>
					<g id="XMLID_902_">
						<g id="XMLID_441_">
							<g id="XMLID_457_">
								<path id="XMLID_414_" style="fill:#FED3B0;" d="M617.075,80.821c0,0-5.074,3.331-6.64,8.397
									c-2.189,7.082-10.19,17.982-12.205,19.07c-2.015,1.088-20.38-17.399-20.38-17.399l-4.975,6.103
									c0,0,20.569,27.792,26.99,25.814c6.421-1.977,22.277-21.392,22.552-22.048C622.692,100.102,617.075,80.821,617.075,80.821z"
									/>
								<path id="XMLID_903_" style="fill:#E8A38B;" d="M609.554,91.584c-1.782,4.194-4.9,9.08-7.484,12.499
									c1.694,3.779,4.24,8.621,7.196,11.528c2.958-2.917,5.956-6.222,8.342-8.976L609.554,91.584z"/>
							</g>
							<g id="XMLID_901_">
								<path id="XMLID_426_" style="fill:#FCBB43;" d="M614.825,116.397c5.635-5.85,10.078-12.216,9.372-13.275
									c-0.395-0.592-7.123-22.301-7.123-22.301s-5.074,3.331-6.64,8.397c-1.625,5.258-5.564,10.13-8.768,14.02
									C604.104,105.862,610.332,114.618,614.825,116.397z"/>
								<path id="XMLID_427_" style="fill:#F29C3D;" d="M610.278,113.089c1.573,1.516,3.145,2.752,4.547,3.307
									c5.635-5.85,10.078-12.216,9.372-13.275c-0.395-0.592-7.123-22.301-7.123-22.301s-0.36,0.239-0.91,0.674
									C616.908,87.613,618.234,105.356,610.278,113.089z"/>
							</g>
						</g>
						<g id="XMLID_444_">
							<path id="XMLID_415_" style="fill:#FED3B0;" d="M578.098,93.773c0,0,0-6.219-2.873-8.685c-2.066-1.772-9.25-1.844-9.25-1.844
								l-1.025,12.572c0,0,6.119,1.411,7.924,1.176C574.678,96.757,578.098,93.773,578.098,93.773z"/>
							<path id="XMLID_1220_" style="fill:#DDBD62;" d="M568.472,54.672c-8.31-0.917-13.096,1.739-15.726,6.331
								c-2.63,4.592-6.635,13.161,0.368,18.489c2.799,1.79,7.579,2.24,7.9,2.735c0.321,0.495,1.612,2.002,1.115,4.084
								c-0.498,2.082-3.411,8.137-2.635,10.19c0.776,2.053,1.511,2.51,2.977,3.214c1.467,0.704,3.936-26.621,3.936-26.621
								L568.472,54.672z"/>
							<path id="XMLID_1217_" style="fill:#FCEE88;" d="M560.948,81.483c3.001,3.72,2.133,5.799,1.254,8.766
								c-0.878,2.967-2.145,4.908-1.639,7.314c0.506,2.406,4.183,3.381,5.94,1.313c1.757-2.069-0.56-9.414,0.472-12.534
								c1.033-3.121,2.719-4.028,2.719-4.028L560.948,81.483z"/>
							<path id="XMLID_1214_" style="fill:#F96B5D;" d="M559.216,81.604c-13.189-4.625-8.9-16.889-2.378-23.422
								c6.232-6.242,19.75-4.196,22.651,4.329c2.069,6.079,3.034,20.229-7.379,20.033C561.698,82.348,559.216,81.604,559.216,81.604
								z"/>
							<path id="XMLID_1198_" style="fill:#E8A38B;" d="M561.432,85.592c0.329-1.086-1.733-2.604,2.293-2.31
								c1.507,0.123,3.351,0.262,4.206,2.459c0.855,2.197-1.844-0.139-2.978,0.146c0.837,1.328,2.579,1.462,2.676,3.045
								c0.097,1.584-0.853,1.564-0.77,2.455c0.083,0.891-1.685-0.229-3.138,0.789c1.36,0.612,1.861,0.594,2.644,1.596
								c0.784,1.001-0.381,0.8-2.415,0.608c-2.034-0.192-3.539-0.047-4.423-0.14c-1.135-0.472-1.341-1.799,0.261-2.769
								c0.016-2.079-0.221-2.622,0.842-3.191C560.439,87.123,560.467,86.262,561.432,85.592z"/>
							<path id="XMLID_1195_" style="fill:#FED3B0;" d="M567.871,84.338c-2.074-2.282-2.911-3.21-2.921-4.849
								c-0.01-1.639,1.009,0.014,2.428,0.863c1.42,0.849,3.17,0.943,4.732,2.192c1.562,1.249,5.473,4.013,4.065,4.805
								C574.766,88.141,567.871,84.338,567.871,84.338z"/>
							<path id="XMLID_421_" style="fill:#E8A38B;" d="M571.701,91.827c-1.339-1.25-1.584-2.412-1.52-4.197
								c0.053-1.49-0.597-2.112-1.618-3.119c-0.105-0.104-0.262,0.027-0.199,0.153c0.523,1.043,1.237,1.683,1.236,2.966
								c0,0.723-0.075,1.374,0.069,2.096c0.195,0.98,0.696,2.304,1.811,2.479C571.686,92.237,571.883,91.996,571.701,91.827z"/>
						</g>
					</g>
					<g id="XMLID_440_">
						<g id="XMLID_393_">
							<g id="XMLID_86_">
								<path id="XMLID_394_" style="fill:#E8A38B;" d="M676.865,215.306c3.073,3.233,4.537,6.107,5.133,8.548
									c2.658-0.382,5.278-1.17,7.871-1.846c0.798-0.208,1.591-0.43,2.38-0.661c-0.437-0.463-0.862-0.942-1.255-1.447
									c-3.79-4.875-9.892-21.811-14.415-26.038c-4.523-4.227-8.384-6.819-11.879-9.736c2.14-3.514,4.79-15.993,8.791-24.757
									c4.001-8.764,11.43-16.967,6.151-24.673c-5.279-7.706-34.45,18.796-34.45,18.796c2.691,24.027,1.142,30.153,2.325,34.592
									c1.184,4.438,8.9,7.304,12.084,10.756C662.786,202.292,673.089,211.333,676.865,215.306z"/>
								<path id="XMLID_1247_" style="fill:#302551;" d="M678.904,129.514c3.016,5.648,5.563,10.741,1.4,19.322
									c-4.163,8.581-7.418,16.75-7.418,16.75c-1.39,3.013-25.654,5.241-29.189,0.228c-0.528-1.98,1.324-13.34,1.324-13.34
									l-1.818-6.816L678.904,129.514z"/>
							</g>
							<g id="XMLID_85_">
								<path id="XMLID_1254_" style="fill:#AA5922;" d="M667.225,232.081c0.572,1.507,3.033,2.602,6.642,3.181
									c3.609,0.58,9.734,0.387,11.703,0c1.969-0.386,3.281,0.152,4.047,0.366c0.766,0.214,5.359,1.566,7.711,0.858
									c2.352-0.709,1.531-2.383,1.531-2.383L667.225,232.081z"/>
								<path id="XMLID_1189_" style="fill:#F3FEFF;" d="M681.067,222.811c-0.347-1.127-1.911-1.277-1.077-2.083
									c0.351-0.34,1.666,1.454,6.721-0.396c2.612-0.956,3.056-1.647,3.634-2.407c0.577-0.759,1.926,2.737,2.608,4.17
									c1.093,2.296,4.3,5.208,3.709,6.241c-0.592,1.032-13.607,1.47-15.193-1.264
									C682.344,226.142,681.401,223.894,681.067,222.811z"/>
								<path id="XMLID_1183_" style="fill:#FCBB43;" d="M680.594,226.853c0.117-0.279-1.756-2.753-0.671-2.516
									c1.085,0.236,3.955-0.582,4.283,0.074c0.328,0.656,0.484,0.994,0.106,2.442c1.805,1.367,9.888,2.22,12.107,0.263
									c0.798,0.448,2.439,3.128,2.712,5.261c0.273,2.133-0.055,2.222-1.531,2.834c-1.477,0.612-5.195,0.01-6.945-0.427
									c-1.75-0.438-3.773-0.875-5.14-0.547c-1.367,0.328-10.773,0.93-16.187-0.875c-5.414-1.805,0.199-4.6,3.336-4.922
									C675.8,228.117,680.232,227.716,680.594,226.853z"/>
								<g id="XMLID_395_">
									<path id="XMLID_423_" style="fill:#F3FEFF;" d="M680.848,229.279c-0.329-0.33-0.51-0.574-0.527-1.064
										c-0.014-0.413,0.068-0.862,0.243-1.238c0.191-0.41-0.372-0.757-0.615-0.36c-0.543,0.886-0.841,2.971,0.5,3.347
										C680.845,230.076,681.136,229.568,680.848,229.279z"/>
									<path id="XMLID_428_" style="fill:#F3FEFF;" d="M678.479,228.923c0.06-0.521,0.284-1.006,0.348-1.523
										c0.034-0.273-0.371-0.42-0.543-0.225c-0.695,0.791-1.306,3.16,0.004,3.664c0.219,0.084,0.501-0.135,0.48-0.366
										c-0.023-0.25-0.111-0.393-0.202-0.619C678.448,229.559,678.443,229.235,678.479,228.923z"/>
									<path id="XMLID_429_" style="fill:#F3FEFF;" d="M677.149,227.676c-0.739-0.617-1.371,0.853-1.5,1.351
										c-0.134,0.518-0.367,2.107,0.583,2.045c0.31-0.02,0.556-0.355,0.372-0.647c-0.219-0.348-0.17-0.785-0.069-1.21
										c0.062-0.262,0.149-0.517,0.285-0.751c0.105-0.181,0.264-0.267,0.376-0.434C677.26,227.93,677.242,227.755,677.149,227.676
										z"/>
								</g>
							</g>
						</g>
						<g id="XMLID_388_">
							<g id="XMLID_41_">
								<path id="XMLID_1244_" style="fill:#FED3B0;" d="M642.043,147.957c0,0-10.263,25.658-13.544,33.533
									c-3.281,7.875-0.875,12.031,0,17.937c0.875,5.906,3.062,36.311,1.094,45.935c-1.969,9.624-17.937,11.593-22.093,13.124
									c-4.156,1.531-5.469,3.719-1.75,5.25c3.719,1.531,17.28,2.187,23.843,1.312c6.562-0.875,11.558,1.75,12.451-3.281
									c0.892-5.031-2.826-11.593-2.17-15.53c0.656-3.937,6.343-25.374,6.562-31.499c0.219-6.125-3.383-15.967-2.676-23.186
									c0.707-7.219,19.737-25.838,24.112-30.624c4.375-4.786,15.416-13.448,12.302-22.255
									C677.059,129.867,642.043,147.957,642.043,147.957z"/>
								<path id="XMLID_398_" style="fill:#E8A38B;" d="M672.583,154.588l-25.175-6.288l-5.82,0.793
									c-1.167,2.916-4.396,10.975-7.469,18.591c3.586,3.04,10.7,8.136,19.027,9.14c5.719-6.684,12.361-13.31,14.725-15.896
									c1.203-1.316,2.91-2.926,4.688-4.751C672.6,155.189,672.583,154.588,672.583,154.588z"/>
								<g id="XMLID_39_">
									<path id="XMLID_1255_" style="fill:#AA5922;" d="M602.724,262.102c0.456,2.221,1.932,3.38,6.28,4.425
										c4.348,1.046,10.582,1.183,16.324,0c5.742-1.183,7.464-0.488,8.777,0c1.313,0.489,5.332,0.719,6.48,0
										c1.148-0.719,1.536-3.783,1.536-3.783L602.724,262.102z"/>
									<path id="XMLID_1192_" style="fill:#F3FEFF;" d="M629.906,243.391c3.309,1.758,7.957,2.36,10.22,1.564
										c2.263-0.797-0.163,2.099,0,3.906c0.163,1.807,2.782,7.313,1.757,8.305c-1.025,0.992-18.094,1.279-20.989-2.857
										c2.027-0.964,7.058-4.792,7.277-5.885C628.662,245.329,629.046,243.295,629.906,243.391z"/>
									<path id="XMLID_1186_" style="fill:#FCBB43;" d="M619.968,254.111c1.482-0.951,4.867-3.937,5.414-5.25
										c0.547-1.313,2.461-1.75,4.266,0.437c1.805,2.188-0.438,4.211-1.969,4.812c3.445,1.586,12.473,1.256,13.947-0.22
										c0.515,0.602,2.076,3.556,1.419,5.852c-0.656,2.297-0.383,4.922-3.226,5.414c-2.844,0.492-6.945-0.419-12.578,0.282
										c-5.633,0.702-17.335,1.194-22.312-1.267c-4.976-2.461-0.507-4.818,2.57-5.687
										C610.577,257.616,618.805,254.858,619.968,254.111z"/>
									<g id="XMLID_419_">
										<path id="XMLID_432_" style="fill:#F3FEFF;" d="M623.24,253.753c-0.688-0.67-1.458-1.233-2.468-1.005
											c-0.325,0.073-0.347,0.623,0,0.68c0.772,0.126,1.182,0.462,1.68,1.044c0.173,0.202,0.348,0.403,0.502,0.62
											c0.071,0.1,0.139,0.202,0.198,0.309c0.049,0.117,0.063,0.125,0.042,0.025c-0.001,0.073,0.012,0.143,0.039,0.21
											c0.164,0.483,0.76,0.544,1.044,0.136C624.757,255.08,623.669,254.17,623.24,253.753z"/>
										<path id="XMLID_435_" style="fill:#F3FEFF;" d="M620.922,256.822c-0.571-0.964-1.709-2.686-3.025-2.497
											c-0.425,0.061-0.313,0.634,0,0.754c0.942,0.362,1.602,1.454,2.079,2.296C620.323,257.988,621.282,257.431,620.922,256.822
											z"/>
										<path id="XMLID_443_" style="fill:#F3FEFF;" d="M618.285,258.152c-0.198-0.745-0.858-1.245-1.406-1.743
											c-0.534-0.485-1.193-0.963-1.952-0.894c-0.352,0.032-0.479,0.561-0.089,0.655c0.585,0.141,0.985,0.582,1.382,1.008
											c0.343,0.368,0.859,0.767,0.962,1.278C617.327,259.171,618.476,258.87,618.285,258.152z"/>
									</g>
								</g>
							</g>
							<g id="XMLID_380_">
								<path id="XMLID_1241_" style="fill:#383972;" d="M640.243,147.131l-7.522,17.901c0,0,13.068,7.476,28.152,7.476
									c3.929-4.32,10.327-12.947,13.311-16.475c2.984-3.527,6.763-9.525,7.762-14.683c1.561-8.06-4.456-14.47-4.456-14.47
									l-35.349,12.993L640.243,147.131z"/>
								<path id="XMLID_412_" style="fill:#312D63;" d="M680.852,132.297c-1.393-3.309-3.362-5.416-3.362-5.416l-35.349,12.993
									l-1.337,5.113c4.94,1.436,16.902,3.938,29.099-3.961C674.904,137.787,678.401,134.827,680.852,132.297z"/>
								<g id="XMLID_343_">
									<path id="XMLID_401_" style="fill:#5B7DA5;" d="M655.726,152.686c-2.27,4.265-5.021,8.285-8.186,11.936
										c-1.429,1.648-2.98,3.191-4.366,4.852c0.711,0.233,1.449,0.462,2.212,0.684c5.234-6.7,10.737-12.968,14.146-21.048
										c2.299-5.448,3.211-11.045,2.571-16.572l-1.48,0.544C660.87,139.843,658.953,146.622,655.726,152.686z"/>
									<path id="XMLID_400_" style="fill:#5B7DA5;" d="M662.94,148.383c-1.719,4.602-4.55,8.368-7.402,12.297
										c-2.479,3.415-4.54,7.09-7.374,10.217c0.93,0.226,1.888,0.437,2.869,0.627c2.488-2.992,4.47-6.352,6.711-9.554
										c2.883-4.119,5.651-8.216,7.294-13.008c2.01-5.86,2.879-12.178,2.291-18.346l-1.379,0.507
										C666.069,137.016,664.934,143.048,662.94,148.383z"/>
								</g>
							</g>
						</g>
					</g>
					<g id="XMLID_456_">
						<g id="XMLID_38_">
							<path id="XMLID_40_" style="fill:#FCBB43;" d="M660.148,102.382c-3.18-6.004-8.955-31.166-13.813-36.745
								c-2.309-2.652-11.073,0.752-14.941,2.734c-7.439,3.81-2.587,4.354-2.587,7.19c0,2.181-5.323,3.324-7.79,3.738
								c0.03-0.899-0.008-1.568-0.145-1.875c-1.111,1.168-4.987,4.113-6.369,5.539c0,0,3.622,10.127,4.467,12.173
								c0,0,0-0.001,0-0.001c0.003,0.502,0.007,1.018,0.013,1.553c0.105,8.873,4.755,12.928,9.378,15.449
								c4.623,2.521,9.017,9.343,10.642,18.48c0.902,5.075,0.555,12.845,0.555,12.845s5.475,3.734,21.078-1.938
								c15.603-5.673,20.217-13.739,20.217-13.739S663.463,108.642,660.148,102.382z"/>
							<path id="XMLID_425_" style="fill:#F29C3D;" d="M649.009,70.295l-0.845,5.333c0,0,16.336,31.966-4.96,45.99
								c0,0,11.601-2.612,14.633-10.312c0,0,9.682,28.902-18.217,29.154c-0.01,1.779-0.063,3-0.063,3s5.475,3.734,21.078-1.938
								c15.603-5.673,20.217-13.739,20.217-13.739s-17.389-19.142-20.705-25.402C657.536,97.451,653.175,79.61,649.009,70.295z"/>
							<path id="XMLID_1230_" style="fill:#FED3B0;" d="M615.885,74.485c4.045,3.466,5.295,7.561,4.902,10.802
								c-0.393,3.242,0.482,7.957,1.638,9.847c1.926-6.723,6.317-17.036,7.224-19.854c0.951-2.954,1.746-6.911,1.746-6.911
								s-2.228,1.496-4.924-0.891c-2.697-2.387-4.045-3.648-4.045-3.648L615.885,74.485z"/>
							<path id="XMLID_338_" style="fill:#E8A38B;" d="M622.424,63.831l-6.539,10.654c1.467,1.257,2.562,2.597,3.349,3.948
								c2.164-2.896,5.386-7.602,6.625-11.497C623.579,64.909,622.424,63.831,622.424,63.831z"/>
						</g>
						<path id="XMLID_424_" style="fill:#F29C3D;" d="M642.141,99.756c-7.942,6.345-15.173,7.614-19.724,7.603
							c1.693,2.127,3.818,3.618,5.944,4.777c1.078,0.588,2.142,1.419,3.163,2.45c3.813-0.571,8.261-2.443,12.981-5.765
							C653.092,102.777,655.477,89.101,642.141,99.756z"/>
					</g>
					<g id="XMLID_454_">
						<path id="XMLID_396_" style="fill:#D67525;" d="M667.025,76.579c0,0,7.973,5.779-3.408,18.227
							C663.617,94.806,652.893,77.706,667.025,76.579z"/>
						<path id="XMLID_383_" style="fill:#FED3B0;" d="M636.635,66.136c0,0,5.359-2.171,9.397-1.433
							c4.038,0.737,8.81,4.874,11.43,6.958c2.621,2.084,24.852,12.81,26.465,18.114c1.612,5.303-13.27,35.289-13.27,35.289
							l-8.355-3.59c5.208-6.98,5.208-16.992,7.706-25.366c0.784-2.63-20.85-11.62-23.372-12.521
							C644.114,82.685,636.003,76.611,636.635,66.136z"/>
						<path id="XMLID_422_" style="fill:#E8A38B;" d="M657.35,71.57l-6.175,13.86c4.372,1.857,10.759,4.733,14.863,7.133
							c-3.904-8.224-0.377-13.069,1.676-15.002c-4.859-2.768-9.184-5.053-10.252-5.902C657.427,71.632,657.387,71.599,657.35,71.57z
							"/>
						<g id="XMLID_390_">
							<path id="XMLID_389_" style="fill:#FED3B0;" d="M664.779,119.884c0,0-15.776-0.464-18.715,2.475
								c-2.939,2.939-4.233,10.263-2.89,10.932c1.343,0.669,2.937-6.492,4.625-7.569c0,0-1.306,3.581-1.4,5.827
								c-0.094,2.246,0.74,3.275,1.4,2.994c0.659-0.281,1.125-1.252,1.125-1.252s0.398,1.531,1.193,1.297s1.511-1.297,1.511-1.297
								s0.566,0.987,1.281,0.868c1.089-0.181,1.331-2.093,1.809-2.844c0.478-0.751,2.745-1.402,2.745-1.402s6.71,1.905,13.195-4.85
								L664.779,119.884z"/>
							<g id="XMLID_387_">
								<path id="XMLID_391_" style="fill:#E8A38B;" d="M654.768,127.049c-1.079,0.528-1.619,1.487-2.173,2.508
									c-0.512,0.943-1.396,2.123-1.111,3.254c0.024,0.095,0.169,0.095,0.192,0c0.277-1.128,0.732-2.027,1.288-3.038
									c0.518-0.942,1.018-1.852,2.029-2.34C655.25,127.309,655.025,126.924,654.768,127.049z"/>
								<path id="XMLID_392_" style="fill:#E8A38B;" d="M651.415,126.356c-2.076,1.247-2.845,4.227-2.651,6.513
									c0.01,0.114,0.18,0.153,0.211,0.029c0.533-2.187,0.541-4.795,2.684-6.125C651.923,126.609,651.683,126.195,651.415,126.356z
									"/>
							</g>
						</g>
						<path id="XMLID_420_" style="fill:#FCBB43;" d="M646.032,64.702c-4.038-0.737-9.397,1.433-9.397,1.433
							c-0.632,10.475,7.269,17.6,9.791,18.5c1.445,0.516,11.576,6.59,17.191,10.17c-3.293-6.207-1.974-16.665,3.408-18.227
							c-4.349-2.454-8.078-4.586-9.056-5.364C655.349,69.132,650.07,65.44,646.032,64.702z"/>
					</g>
					<g id="XMLID_904_">
						<path id="XMLID_1211_" style="fill:#FED3B0;" d="M615.912,75.098c-3.904,3.711-8.92,8.09-16.138,1.404
							c-7.218-6.686-2.641-8.27-5.458-12.319c-2.817-4.049-4.049-10.211-2.289-14.964c1.76-4.753,12.147-16.725,26.583-9.683
							C633.048,46.578,621.839,69.465,615.912,75.098z"/>
						<path id="XMLID_1210_" style="fill:#E8A38B;" d="M615.736,58.434c-1.414-0.273-2.845,0.238-4.269,0.457
							c-1.424,0.219-3.128,0.013-3.892-1.209c0.212,0.752,0.351,1.651-0.167,2.236c-0.587,0.662-1.651,0.519-2.487,0.23
							c-1.063-0.367-2.074-0.882-2.996-1.525c0.38,0.866-0.174,1.951-1.039,2.334c-0.864,0.383-1.908,0.163-2.693-0.365
							c-0.785-0.528-1.349-1.323-1.823-2.141c-0.971-1.674-1.64-3.522-1.965-5.429c-1.022,1.816-2.059,3.675-2.438,5.724
							c-0.676-2.557-0.549-5.32,0.358-7.805c0.362-0.992,0.855-1.953,1.583-2.718c0.707-0.743,1.609-1.274,2.542-1.699
							c1.872-0.851,3.899-1.306,5.93-1.633c2.96-0.476,6.1-0.671,8.858,0.504c2.11,0.899,3.844,2.557,5.072,4.495
							c1.227,1.938,1.974,4.147,2.448,6.392c0.02,0.096,0.063,0.213,0.161,0.219c0.098,0.006,0.072-0.203-0.002-0.139"/>
						<path id="XMLID_1207_" style="fill:#362D6C;" d="M592.445,60.594c-0.475-6.302,2.15-10.567,2.15-10.567
							s1.094,5.344,4.156,8.25c3.062,2.906,2.078-0.594,1.969-1.469c-0.109-0.875,0.656,1.322,4.047,1.864
							c3.39,0.542,0.984-2.739,0.547-3.942c-0.438-1.203,1.531,2.61,4.922,3.547c3.391,0.937,4.375,0.281,6.125,0.937
							c1.75,0.656,5.291,1.98,6.255,5.365c2.276-3.724,4.612-13.24,3.062-18.161c-1.551-4.922-9.48-12.252-20.281-8.859
							c-10.801,3.393-11.879,9.734-14.183,10.062c-2.304,0.328-3.617-1.203-5.257-0.985c-1.641,0.219,0.219,3.921,2.625,4.148
							c-1.75,1.54-4.265,5.244-3.937,7.493c0.328,2.25,4.447-2.125,4.447-2.125s-1.056,4.265,1.24,6.672
							C592.626,65.229,592.445,60.594,592.445,60.594z"/>
						<path id="XMLID_1204_" style="fill:#49538E;" d="M619.163,38.966c-3.544-2.087-8.285-3.13-13.768-1.408
							c-10.801,3.393-11.879,9.734-14.183,10.062c-2.305,0.328-3.617-1.203-5.257-0.985c-1.641,0.219,0.219,3.921,2.625,4.148
							c-1.75,1.54-4.265,5.244-3.937,7.493c0.328,2.25,4.447-2.125,4.447-2.125s-1.056,4.265,1.24,6.672
							c2.297,2.406,2.116-2.229,2.116-2.229c-0.475-6.301,2.15-10.567,2.15-10.567s0.076,0.367,0.24,0.954
							c0.092-0.292,0.194-0.581,0.313-0.865c1.099-2.629,3.386-4.568,5.755-6.151c3.76-2.512,7.996-4.411,12.477-5.014
							C615.292,38.694,617.248,38.702,619.163,38.966z"/>
						<path id="XMLID_1201_" style="fill:#FED3B0;" d="M616.359,59.214c0.438-3.609,3.609-4.484,4.812-2.188
							c1.203,2.297,0.438,6.464-0.875,7.552C618.984,65.667,616.359,59.214,616.359,59.214z"/>
						<path id="XMLID_1072_" style="fill:#F464A9;" d="M608.107,69.041c-0.659,0.106-0.887,0.741-0.802,1.332
							c0.052,0.361,0.266,1.094,0.658,1.342c0.063,0.215,0.338,0.368,0.539,0.158c0.437-0.457,0.798-1.193,0.764-1.84
							C609.234,69.432,608.723,68.942,608.107,69.041z"/>
						<g id="XMLID_442_">
							<path id="XMLID_1182_" style="fill:#3A5260;" d="M597.916,61.773c-1.258-0.121-2.404-0.57-3.428-1.307
								c-0.343-0.247-0.671,0.322-0.331,0.567c1.121,0.807,2.386,1.265,3.759,1.397C598.336,62.47,598.333,61.813,597.916,61.773z"
								/>
							<path id="XMLID_1181_" style="fill:#3A5260;" d="M607.357,58.8c-1.226,0.954-2.52,1.806-3.875,2.564
								c-0.369,0.206-0.038,0.773,0.331,0.567c1.405-0.786,2.737-1.677,4.008-2.667C608.154,59.005,607.686,58.544,607.357,58.8z"/>
							<path id="XMLID_1075_" style="fill:#3A5260;" d="M597.884,64.253c-0.005-0.004-0.01-0.005-0.015-0.009
								c-0.063-0.072-0.142-0.134-0.252-0.176c-0.223-0.084-0.39,0.128-0.415,0.316c-0.081,0.601,0.082,1.211,0.45,1.693
								c0.132,0.173,0.452,0.25,0.567,0C598.505,65.452,598.397,64.731,597.884,64.253z"/>
							<path id="XMLID_1074_" style="fill:#3A5260;" d="M604.987,62.87c-0.215-0.164-0.478,0.064-0.494,0.283
								c-0.003,0.042-0.006,0.085-0.009,0.127c-0.045,0.051-0.08,0.113-0.085,0.197c-0.031,0.495,0.17,0.967,0.556,1.279
								c0.207,0.167,0.448,0.094,0.548-0.145C605.772,63.974,605.52,63.276,604.987,62.87z"/>
							<path id="XMLID_1073_" style="fill:#3A5260;" d="M601.386,69.742c-0.344-0.106-0.994-0.259-0.758-0.85
								c0.034-0.085,0.208-0.19,0.271-0.264c0.178-0.209,0.31-0.456,0.388-0.719c0.164-0.553,0.082-1.104-0.185-1.608
								c-0.198-0.373-0.765-0.042-0.567,0.331c0.272,0.513,0.238,1.106-0.135,1.558c-0.22,0.267-0.472,0.422-0.525,0.784
								c-0.118,0.812,0.7,1.204,1.335,1.401C601.615,70.499,601.789,69.866,601.386,69.742z"/>
							<path id="XMLID_1069_" style="fill:#3A5260;" d="M609.485,69.173c-0.574-0.704-1.697-0.758-2.281-0.052
								c-0.297,0.359-0.419,0.828-0.368,1.288c0.084,0.763,0.585,1.148,0.999,1.72c-0.729,0.615-1.689,0.934-2.698,0.895
								c-0.422-0.016-0.422,0.64,0,0.656c1.398,0.053,2.755-0.479,3.65-1.577C609.346,71.415,610.16,70.001,609.485,69.173z
								 M608.874,70.666c-0.144,0.373-0.342,0.704-0.58,0.994c-0.409-0.505-0.967-0.979-0.789-1.709
								c0.129-0.532,0.662-0.855,1.158-0.588C609.169,69.636,609.039,70.236,608.874,70.666z"/>
						</g>
					</g>
				</g>
				<g id="XMLID_458_">
					<g id="XMLID_872_">
						<path id="XMLID_898_" style="fill:#051537;" d="M647.393,265.108c0.009,2.899,1.402,4.482,4.652,4.155
							c3.251-0.328,4.168-1.5,4.317-4.642C653.889,264.754,647.393,265.108,647.393,265.108z"/>
						<path id="XMLID_895_" style="fill:#051537;" d="M484.978,247.144c0.009,2.899,1.402,4.482,4.653,4.155
							c3.251-0.328,4.168-1.5,4.317-4.642C491.474,246.791,484.978,247.144,484.978,247.144z"/>
						<polygon id="XMLID_892_" style="fill:#798EA8;" points="482.213,163.162 482.476,246.861 491.478,247.88 491.213,163.678 
													"/>
						<polygon id="XMLID_889_" style="fill:#D7D5FD;" points="645.898,163.766 645.958,265.121 654.96,266.14 654.628,163.766 
													"/>
						<polygon id="XMLID_886_" style="fill:#9E97C9;" points="654.96,266.14 659.065,264.106 658.749,163.766 654.628,163.766 
													"/>
						<polygon id="XMLID_883_" style="fill:#123E6B;" points="491.478,247.88 495.582,245.846 495.316,161.238 491.214,163.815 
													"/>
						<polygon id="XMLID_882_" style="fill:#352C70;" points="491.397,222.085 495.505,221.263 645.859,233.55 645.865,235.606 
													"/>
						<polygon id="XMLID_879_" style="fill:#123E6B;" points="491.235,170.661 495.343,169.683 645.683,177.446 645.69,179.758 
													"/>
						<polygon id="XMLID_876_" style="fill:#798EA8;" points="491.235,170.661 645.69,179.758 645.72,189.411 491.261,178.805 
													"/>
						<polygon id="XMLID_873_" style="fill:#D7D5FD;" points="491.397,222.085 645.865,235.606 645.898,246.219 491.429,232.441 
													"/>
					</g>
					<g id="XMLID_845_">
						<path id="XMLID_869_" style="fill:#051537;" d="M587.04,311.793c0,3.588,1.672,5.568,5.591,5.208
							c3.918-0.361,5.028-1.799,5.219-5.687C594.87,311.445,587.04,311.793,587.04,311.793z"/>
						<path id="XMLID_866_" style="fill:#051537;" d="M391.389,287.306c0,3.588,1.672,5.568,5.591,5.207
							c3.918-0.361,5.028-1.799,5.219-5.687C399.219,286.959,391.389,287.306,391.389,287.306z"/>
						<polygon id="XMLID_863_" style="fill:#D7D5FD;" points="388.374,183.309 388.374,286.921 399.219,288.307 399.219,184.071 
													"/>
						<polygon id="XMLID_860_" style="fill:#D7D5FD;" points="585.31,182.593 585.31,311.79 596.155,313.176 596.154,182.111 						
							"/>
						<polygon id="XMLID_857_" style="fill:#9E97C9;" points="596.155,313.176 601.108,310.715 601.108,180.398 596.154,182.111 
													"/>
						<polygon id="XMLID_856_" style="fill:#352C70;" points="399.219,288.307 404.172,285.847 404.172,181.108 399.219,184.241 
													"/>
						<polygon id="XMLID_855_" style="fill:#352C70;" points="399.219,256.375 404.172,255.415 585.31,272.707 585.31,275.253 
													"/>
						<polygon id="XMLID_852_" style="fill:#123E6B;" points="399.219,192.716 404.172,191.563 585.31,203.254 585.31,206.117 
													"/>
						<polygon id="XMLID_849_" style="fill:#D7D5FD;" points="399.219,192.716 585.31,206.117 585.31,218.066 399.219,202.798 
													"/>
						<polygon id="XMLID_846_" style="fill:#D7D5FD;" points="399.219,256.375 585.31,275.253 585.31,288.39 399.219,269.195 						
							"/>
					</g>
					<g id="XMLID_820_">
						<path id="XMLID_842_" style="fill:#051537;" d="M463.6,397.52c0,4.324,2.016,6.798,6.74,6.573
							c4.724-0.225,6.062-1.899,6.293-6.573C473.04,397.52,463.6,397.52,463.6,397.52z"/>
						<path id="XMLID_839_" style="fill:#051537;" d="M227.715,357.556c0,4.324,2.016,6.798,6.74,6.573
							c4.724-0.225,6.062-1.899,6.293-6.573C237.155,357.556,227.715,357.556,227.715,357.556z"/>
						<polygon id="XMLID_836_" style="fill:#D7D5FD;" points="224.08,232.086 224.08,356.931 237.155,359.181 237.155,233.585 
													"/>
						<polygon id="XMLID_833_" style="fill:#D7D5FD;" points="461.515,241.752 461.515,397.424 474.589,399.673 474.589,241.752 
													"/>
						<polygon id="XMLID_830_" style="fill:#9E97C9;" points="474.589,399.673 480.561,396.974 480.561,239.952 474.589,241.752 
													"/>
						<polygon id="XMLID_829_" style="fill:#352C70;" points="237.155,359.181 243.127,356.481 243.127,230.279 237.155,233.789 
													"/>
						<polygon id="XMLID_828_" style="fill:#352C70;" points="237.155,320.705 243.127,319.813 461.515,350.332 461.515,353.4 
													"/>
						<polygon id="XMLID_827_" style="fill:#352C70;" points="237.155,244.001 243.127,242.876 461.515,266.647 461.515,270.096 
													"/>
						<polygon id="XMLID_824_" style="fill:#D7D5FD;" points="237.155,244.001 461.515,270.096 461.515,284.494 237.155,256.149 
													"/>
						<polygon id="XMLID_821_" style="fill:#D7D5FD;" points="237.155,320.705 461.515,353.4 461.515,369.229 237.155,336.153 
													"/>
					</g>
					<g id="XMLID_808_">
						<polygon id="XMLID_819_" style="fill:#FFFFFF;" points="438.119,151.768 126.775,207.558 461.515,241.752 679.876,163.766 
													"/>
						<polygon id="XMLID_816_" style="fill:#5E83CB;" points="438.419,153.642 152.72,206.058 459.865,235.954 666.756,165.834 
													"/>
						<polygon id="XMLID_815_" style="fill:#FFFFFF;" points="294.474,219.855 540.143,159.074 544.015,159.28 305.555,220.934 
													"/>
						<polygon id="XMLID_812_" style="fill:#0F1B2C;" points="126.775,207.558 461.515,241.752 461.515,259.298 126.775,220.934 
													"/>
						<polygon id="XMLID_809_" style="fill:#1D3147;" points="461.515,241.752 679.876,163.766 679.876,173.364 461.515,259.298 
													"/>
					</g>
					<g id="XMLID_459_">
						<polygon id="XMLID_805_" style="fill:#0F1B2C;" points="615.262,198.792 615.773,198.792 615.773,161.449 622.521,161.449 
							622.521,204.866 602.245,203.883 						"/>
						<polygon id="XMLID_802_" style="fill:#1D3147;" points="622.521,161.449 625.896,161.449 625.896,202.167 622.521,204.866 
													"/>
						<polygon id="XMLID_799_" style="fill:#0F1B2C;" points="292.505,145.252 292.505,177.86 303.935,175.812 297.004,175.171 
							296.78,145.252 						"/>
						<polygon id="XMLID_796_" style="fill:#1D3147;" points="296.78,145.252 299.704,145.252 299.704,174.047 308.803,174.94 
							303.935,175.812 297.004,175.171 						"/>
						<g id="XMLID_460_">
							<g id="XMLID_791_">
								<g id="XMLID_513_">
									<polygon id="XMLID_514_" style="fill:#1D3147;" points="615.096,166.473 298.911,149.54 298.913,148.697 615.097,165.631 
																			"/>
								</g>
							</g>
							<g id="XMLID_786_">
								<g id="XMLID_510_">
									<polygon id="XMLID_511_" style="fill:#1D3147;" points="615.091,170.025 298.906,153.092 298.907,152.249 615.092,169.182 
																			"/>
								</g>
							</g>
							<g id="XMLID_781_">
								<g id="XMLID_503_">
									<polygon id="XMLID_504_" style="fill:#1D3147;" points="615.085,173.577 298.9,156.643 298.901,155.801 615.086,172.734 
																			"/>
								</g>
							</g>
							<g id="XMLID_776_">
								<g id="XMLID_500_">
									<polygon id="XMLID_501_" style="fill:#1D3147;" points="615.08,177.128 298.895,160.195 298.896,159.352 615.081,176.286 
																			"/>
								</g>
							</g>
							<g id="XMLID_771_">
								<g id="XMLID_497_">
									<polygon id="XMLID_498_" style="fill:#1D3147;" points="615.074,180.68 298.889,163.747 298.891,162.904 615.076,179.838 
																			"/>
								</g>
							</g>
							<g id="XMLID_766_">
								<g id="XMLID_494_">
									<polygon id="XMLID_495_" style="fill:#1D3147;" points="615.069,184.232 298.884,167.298 298.885,166.456 615.07,183.389 
																			"/>
								</g>
							</g>
							<g id="XMLID_761_">
								<g id="XMLID_491_">
									<polygon id="XMLID_492_" style="fill:#1D3147;" points="615.063,187.783 298.878,170.85 298.88,170.007 615.065,186.941 
																			"/>
								</g>
							</g>
							<g id="XMLID_462_">
								<g id="XMLID_1661_">
									<g id="XMLID_1764_">
										<polygon id="XMLID_1765_" style="fill:#1D3147;" points="299.299,170.451 298.459,170.406 298.492,149.096 
											299.332,149.141 										"/>
									</g>
									<g id="XMLID_1762_">
										<polygon id="XMLID_1763_" style="fill:#1D3147;" points="305.499,170.783 304.659,170.738 304.692,149.428 
											305.531,149.473 										"/>
									</g>
									<g id="XMLID_1760_">
										<polygon id="XMLID_1761_" style="fill:#1D3147;" points="311.698,171.115 310.858,171.07 310.891,149.76 311.731,149.805 
																					"/>
									</g>
									<g id="XMLID_1758_">
										<polygon id="XMLID_1759_" style="fill:#1D3147;" points="317.898,171.447 317.058,171.402 317.091,150.092 
											317.931,150.137 										"/>
									</g>
									<g id="XMLID_1756_">
										<polygon id="XMLID_1757_" style="fill:#1D3147;" points="324.098,171.779 323.258,171.734 323.291,150.424 
											324.131,150.47 										"/>
									</g>
									<g id="XMLID_1754_">
										<polygon id="XMLID_1755_" style="fill:#1D3147;" points="330.297,172.111 329.457,172.066 329.49,150.757 330.33,150.801 
																					"/>
									</g>
									<g id="XMLID_1752_">
										<polygon id="XMLID_1753_" style="fill:#1D3147;" points="336.497,172.443 335.657,172.398 335.69,151.089 336.53,151.134 
																					"/>
									</g>
									<g id="XMLID_1750_">
										<polygon id="XMLID_1751_" style="fill:#1D3147;" points="342.697,172.775 341.857,172.73 341.89,151.421 342.73,151.466 
																					"/>
									</g>
									<g id="XMLID_1748_">
										<polygon id="XMLID_1749_" style="fill:#1D3147;" points="348.896,173.107 348.057,173.062 348.09,151.753 348.93,151.798 
																					"/>
									</g>
									<g id="XMLID_1746_">
										<polygon id="XMLID_1747_" style="fill:#1D3147;" points="355.096,173.439 354.256,173.395 354.289,152.085 
											355.129,152.13 										"/>
									</g>
									<g id="XMLID_1744_">
										<polygon id="XMLID_1745_" style="fill:#1D3147;" points="361.296,173.771 360.456,173.726 360.489,152.417 
											361.329,152.462 										"/>
									</g>
									<g id="XMLID_1742_">
										<polygon id="XMLID_1743_" style="fill:#1D3147;" points="367.496,174.104 366.656,174.059 366.689,152.749 
											367.529,152.794 										"/>
									</g>
									<g id="XMLID_1740_">
										<polygon id="XMLID_1741_" style="fill:#1D3147;" points="373.695,174.436 372.855,174.391 372.888,153.081 
											373.728,153.126 										"/>
									</g>
									<g id="XMLID_1738_">
										<polygon id="XMLID_1739_" style="fill:#1D3147;" points="379.895,174.768 379.055,174.723 379.088,153.413 
											379.928,153.458 										"/>
									</g>
									<g id="XMLID_1736_">
										<polygon id="XMLID_1737_" style="fill:#1D3147;" points="386.095,175.1 385.255,175.055 385.288,153.745 386.128,153.79 
																					"/>
									</g>
									<g id="XMLID_1734_">
										<polygon id="XMLID_1735_" style="fill:#1D3147;" points="392.294,175.432 391.455,175.387 391.488,154.077 
											392.327,154.122 										"/>
									</g>
									<g id="XMLID_1732_">
										<polygon id="XMLID_1733_" style="fill:#1D3147;" points="398.494,175.764 397.654,175.719 397.687,154.409 
											398.527,154.454 										"/>
									</g>
									<g id="XMLID_1730_">
										<polygon id="XMLID_1731_" style="fill:#1D3147;" points="404.694,176.096 403.854,176.051 403.887,154.741 
											404.727,154.786 										"/>
									</g>
									<g id="XMLID_1728_">
										<polygon id="XMLID_1729_" style="fill:#1D3147;" points="410.893,176.428 410.054,176.383 410.087,155.073 
											410.926,155.118 										"/>
									</g>
									<g id="XMLID_1726_">
										<polygon id="XMLID_1727_" style="fill:#1D3147;" points="417.093,176.76 416.254,176.715 416.286,155.405 417.126,155.45 
																					"/>
									</g>
									<g id="XMLID_1724_">
										<polygon id="XMLID_1725_" style="fill:#1D3147;" points="423.293,177.092 422.453,177.047 422.486,155.737 
											423.326,155.782 										"/>
									</g>
									<g id="XMLID_1722_">
										<polygon id="XMLID_1723_" style="fill:#1D3147;" points="429.493,177.424 428.653,177.379 428.686,156.069 
											429.526,156.114 										"/>
									</g>
									<g id="XMLID_1720_">
										<polygon id="XMLID_1721_" style="fill:#1D3147;" points="435.692,177.756 434.853,177.711 434.886,156.401 
											435.725,156.446 										"/>
									</g>
									<g id="XMLID_1718_">
										<polygon id="XMLID_1719_" style="fill:#1D3147;" points="441.892,178.088 441.052,178.043 441.085,156.733 
											441.925,156.778 										"/>
									</g>
									<g id="XMLID_1716_">
										<polygon id="XMLID_1717_" style="fill:#1D3147;" points="448.092,178.42 447.252,178.375 447.285,157.065 448.125,157.11 
																					"/>
									</g>
									<g id="XMLID_1714_">
										<polygon id="XMLID_1715_" style="fill:#1D3147;" points="454.292,178.752 453.451,178.707 453.484,157.397 
											454.324,157.442 										"/>
									</g>
									<g id="XMLID_1712_">
										<polygon id="XMLID_1713_" style="fill:#1D3147;" points="460.491,179.084 459.651,179.039 459.684,157.729 
											460.524,157.774 										"/>
									</g>
									<g id="XMLID_1710_">
										<polygon id="XMLID_1711_" style="fill:#1D3147;" points="466.691,179.416 465.851,179.371 465.884,158.061 
											466.724,158.106 										"/>
									</g>
									<g id="XMLID_1708_">
										<polygon id="XMLID_1709_" style="fill:#1D3147;" points="472.891,179.748 472.051,179.703 472.084,158.393 
											472.924,158.438 										"/>
									</g>
									<g id="XMLID_1706_">
										<polygon id="XMLID_1707_" style="fill:#1D3147;" points="479.09,180.08 478.25,180.035 478.283,158.725 479.123,158.77 
																					"/>
									</g>
									<g id="XMLID_1704_">
										<polygon id="XMLID_1705_" style="fill:#1D3147;" points="485.29,180.412 484.45,180.367 484.483,159.057 485.323,159.102 
																					"/>
									</g>
									<g id="XMLID_1702_">
										<polygon id="XMLID_1703_" style="fill:#1D3147;" points="491.49,180.744 490.65,180.699 490.683,159.389 491.523,159.434 
																					"/>
									</g>
									<g id="XMLID_1700_">
										<polygon id="XMLID_1701_" style="fill:#1D3147;" points="497.69,181.076 496.85,181.031 496.883,159.721 497.723,159.766 
																					"/>
									</g>
									<g id="XMLID_1698_">
										<polygon id="XMLID_1699_" style="fill:#1D3147;" points="503.889,181.408 503.049,181.363 503.082,160.053 
											503.922,160.098 										"/>
									</g>
									<g id="XMLID_1696_">
										<polygon id="XMLID_1697_" style="fill:#1D3147;" points="510.089,181.74 509.249,181.695 509.282,160.385 510.122,160.43 
																					"/>
									</g>
									<g id="XMLID_1694_">
										<polygon id="XMLID_1695_" style="fill:#1D3147;" points="516.288,182.072 515.449,182.027 515.482,160.717 
											516.321,160.762 										"/>
									</g>
									<g id="XMLID_1692_">
										<polygon id="XMLID_1693_" style="fill:#1D3147;" points="522.488,182.404 521.648,182.359 521.681,161.049 
											522.521,161.094 										"/>
									</g>
									<g id="XMLID_1690_">
										<polygon id="XMLID_1691_" style="fill:#1D3147;" points="528.688,182.736 527.848,182.691 527.881,161.381 
											528.721,161.426 										"/>
									</g>
									<g id="XMLID_1688_">
										<polygon id="XMLID_1689_" style="fill:#1D3147;" points="534.888,183.068 534.048,183.023 534.081,161.713 
											534.921,161.758 										"/>
									</g>
									<g id="XMLID_1686_">
										<polygon id="XMLID_1687_" style="fill:#1D3147;" points="541.087,183.4 540.247,183.355 540.281,162.046 541.12,162.09 
																					"/>
									</g>
									<g id="XMLID_1684_">
										<polygon id="XMLID_1685_" style="fill:#1D3147;" points="547.287,183.732 546.447,183.687 546.48,162.377 547.32,162.423 
																					"/>
									</g>
									<g id="XMLID_1682_">
										<polygon id="XMLID_1683_" style="fill:#1D3147;" points="553.487,184.064 552.647,184.019 552.68,162.71 553.52,162.754 
																					"/>
									</g>
									<g id="XMLID_1680_">
										<polygon id="XMLID_1681_" style="fill:#1D3147;" points="559.686,184.396 558.847,184.351 558.88,163.042 
											559.719,163.087 										"/>
									</g>
									<g id="XMLID_1678_">
										<polygon id="XMLID_1679_" style="fill:#1D3147;" points="565.886,184.728 565.046,184.683 565.079,163.374 
											565.919,163.419 										"/>
									</g>
									<g id="XMLID_1676_">
										<polygon id="XMLID_1677_" style="fill:#1D3147;" points="572.086,185.06 571.246,185.015 571.279,163.706 572.119,163.75 
																					"/>
									</g>
									<g id="XMLID_1674_">
										<polygon id="XMLID_1675_" style="fill:#1D3147;" points="578.285,185.392 577.446,185.348 577.479,164.038 
											578.318,164.083 										"/>
									</g>
									<g id="XMLID_1672_">
										<polygon id="XMLID_1673_" style="fill:#1D3147;" points="584.485,185.724 583.645,185.679 583.678,164.37 
											584.518,164.415 										"/>
									</g>
									<g id="XMLID_1670_">
										<polygon id="XMLID_1671_" style="fill:#1D3147;" points="590.685,186.056 589.845,186.011 589.878,164.702 
											590.718,164.747 										"/>
									</g>
									<g id="XMLID_1668_">
										<polygon id="XMLID_1669_" style="fill:#1D3147;" points="596.885,186.388 596.045,186.344 596.078,165.034 
											596.918,165.079 										"/>
									</g>
									<g id="XMLID_1666_">
										<polygon id="XMLID_1667_" style="fill:#1D3147;" points="603.084,186.721 602.245,186.676 602.277,165.366 
											603.117,165.411 										"/>
									</g>
									<g id="XMLID_1664_">
										<polygon id="XMLID_1665_" style="fill:#1D3147;" points="609.284,187.052 608.444,187.008 608.477,165.698 
											609.317,165.743 										"/>
									</g>
									<g id="XMLID_1662_">
										<polygon id="XMLID_1663_" style="fill:#1D3147;" points="615.484,187.385 614.644,187.34 614.677,166.03 615.517,166.075 
																					"/>
									</g>
								</g>
							</g>
							<polygon id="XMLID_461_" style="fill:#FFFFFF;" points="615.517,166.075 298.492,149.096 298.498,145.234 615.523,162.212 
															"/>
						</g>
					</g>
				</g>
				<g id="XMLID_1286_">
					<g id="XMLID_1023_">
						<path id="XMLID_1028_" style="fill:#E8A38B;" d="M125.526,140.466c-1.532,0.788-69.374,29.802-68.61,45.399
							c0.953,19.479,34.734,24.44,34.734,24.44l33.877-67.282"/>
						<path id="XMLID_1035_" style="fill:#31B9E8;" d="M125.526,140.466c-0.994,0.512-32.104,10.778-52.077,23.675
							c2.45,9.75,8.13,26.243,20.776,27.545c1.939,0.2,4.09-1.02,6.04-1.694l25.261-46.969V140.466z"/>
					</g>
					<g id="XMLID_1285_">
						<g id="XMLID_1284_">
							<g id="XMLID_1266_">
								<path id="XMLID_1067_" style="fill:#15547A;" d="M55.271,370.862c-0.071,2.553,0.49,5.775,6.094,6.195
									c5.605,0.421,11.349-2.941,16.954-2.521c5.604,0.42,25.781,1.126,32.086-0.558c6.305-1.684,5.87-6.312,5.87-6.312
									L55.271,370.862z"/>
								<path id="XMLID_1065_" style="fill:#E8A38B;" d="M68.898,241.892c-2.522,8.407-1.681,22.699,11.77,29.424
									c13.451,6.725,40.353,36.99,40.353,36.99s-11.77,6.725-26.902,21.017c-15.132,14.292-29.424,26.902-29.424,26.902
									s-10.929,7.566-9.248,12.61c1.681,5.044,11.77,3.363,21.017,4.204c9.248,0.841,35.309-1.681,37.831-4.204
									c2.522-2.522-0.841-8.407-17.654-10.929c-16.814-2.522-5.044-5.885,2.522-10.929c7.566-5.044,34.468-18.495,39.512-22.699
									c5.044-4.203,6.725-24.38,1.681-36.99c-5.044-12.61-13.01-34.166-17.434-41.883
									C118.499,237.689,80.668,218.353,68.898,241.892z"/>
								<path id="XMLID_1062_" style="fill:#302551;" d="M128.832,246.863c0,0,20.05,32.201,25.437,46.765
									c-9.937,7.343-35.386,18.977-50.939,14.564c-5.254-11.349-7.776-20.387-12.4-23.96c-4.624-3.573-26.156-21.657-22.22-35.839
									C72.645,234.21,128.832,246.863,128.832,246.863z"/>
								<path id="XMLID_1021_" style="fill:#F2FDFC;" d="M67.954,353.327c6.578-8.409,13.973-14.834,15.217-13.802
									c1.243,1.032,9.016,7.881,14.588,8.345c5.571,0.464-8.27,4.657-9.336,7.605c-1.066,2.947-9.372,8.096-15.047,7.466
									C67.702,362.31,65.81,356.068,67.954,353.327z"/>
								<path id="XMLID_1015_" style="fill:#47CEF1;" d="M67.954,353.327c3.43,4.044,0.88,7.981,5.111,7.904
									c4.231-0.077,11.59-1.768,15.358-5.757c3.768-3.988,2.498,2.362,12.38,3.18c9.883,0.818,16.503,5.127,15.347,10.171
									c-1.156,5.044-21.227,3.047-38.146,4.939c-16.919,1.892-25.184,0.63-22.733-7.461
									C57.723,358.212,67.954,353.327,67.954,353.327z"/>
								<g id="XMLID_430_">
									<path id="XMLID_450_" style="fill:#F2FDFC;" d="M95.822,358.095c-0.43-1.174-1.274-2.981-2.711-3.098
										c-0.46-0.037-0.654,0.577-0.362,0.875c1.481,1.517,2.656,4.18,1.924,6.33c-0.328,0.805,1.049,1.392,1.413,0.596
										C96.744,361.363,96.341,359.515,95.822,358.095z"/>
									<path id="XMLID_451_" style="fill:#F2FDFC;" d="M100.298,360.26c-0.404-1.009-1.585-3.089-2.896-2.893
										c-0.089,0.013-0.182,0.112-0.199,0.199c-0.167,0.864,0.788,1.562,1.191,2.268c0.354,0.62,0.572,1.293,0.703,1.994
										c0.109,0.581,0.408,1.874,0.192,2.467c-0.244,0.671,0.616,1.272,1.19,0.915
										C101.674,364.468,100.695,361.253,100.298,360.26z"/>
									<path id="XMLID_452_" style="fill:#F2FDFC;" d="M101.372,358.047c-0.385-0.23-0.93,0.25-0.646,0.646
										c1.494,2.086,3.231,4.371,3.111,7.074c-0.048,1.095,1.661,1.095,1.703,0C105.649,362.876,103.864,359.537,101.372,358.047z
										"/>
								</g>
							</g>
							<g id="XMLID_1264_">
								<g id="XMLID_1281_">
									<path id="XMLID_1059_" style="fill:#FED3B0;" d="M113.249,250.958c19.542,16.995,39.718,43.057,45.603,50.623
										c5.885,7.566,6.305,13.871,2.102,28.583c-4.203,14.712-10.088,60.95-8.407,76.923c1.681,15.973,18.495,23.539,22.699,24.8
										s18.075,1.261,19.756,6.726c1.681,5.464-5.885,9.248-15.973,8.407c-10.088-0.841-30.685-3.783-47.499-3.363
										c-16.814,0.42,6.305-22.699,3.783-31.106c-2.522-8.407-6.725-43.716-5.044-57.167c1.681-13.451,7.146-27.322,6.725-34.468
										c-0.42-7.146-52.269-40.728-62.074-53.571c-9.805-12.844-7.867-13.729-3.988-28.767
										C74.811,223.54,113.249,250.958,113.249,250.958z"/>
									<path id="XMLID_1058_" style="fill:#E8A38B;" d="M121.523,305.613c8.808,7.003,15.324,12.79,15.471,15.304
										c0.153,2.605-0.48,6.111-1.422,10.157c6.082-1.464,11.989-3.602,17.432-6.667c3.871-2.179,7.497-4.848,10.69-7.939
										c0.343-6.004-1.201-10.207-4.842-14.887c-2.539-3.264-7.742-9.975-14.404-17.913c-4.191,1.145-8.152,3.176-11.663,5.755
										c-4.167,3.06-7.829,6.974-9.872,11.723C122.285,302.605,121.841,304.099,121.523,305.613z"/>
								</g>
								<g id="XMLID_1280_">
									<path id="XMLID_1055_" style="fill:#383972;" d="M132.43,252.752c-0.517,6.889-0.517,10.041,5.158,17.187
										c5.675,7.146,24.59,28.583,26.902,32.997c-4.203,7.356-20.807,21.017-42.034,18.075
										c-6.786-9.544-24.743-30.91-31.526-36.78c-6.783-5.87-24.79-20.3-24.723-31.229c0.067-10.929,0.823-13.093,0.823-13.093
										l61.803,6.953L132.43,252.752z"/>
									<path id="XMLID_1056_" style="fill:#302551;" d="M67.03,239.91c0,0-0.732,2.119-0.818,12.632
										c28.221,18.766,65.857,2.417,65.857,2.417l-7.435-8.568L67.03,239.91z"/>
								</g>
							</g>
						</g>
						<g id="XMLID_1283_">
							<path id="XMLID_1018_" style="fill:#F2FDFC;" d="M131.501,393.101c7.138,2.627,15.584,3.573,20.924,0
								c5.34-3.573-1.179,12.812,0.858,17.847c2.036,5.034,5.804,10.927,8.678,13.217s6.381,12.636-7.49,10.745
								c-13.871-1.891-24.213-5.891-23.647-8.769c0.565-2.879,4.243-8.764,3.508-11.286
								C133.595,412.331,130.247,393.521,131.501,393.101z"/>
							<g id="XMLID_1282_">
								<path id="XMLID_1066_" style="fill:#15547A;" d="M125.819,444.593c1.121,4.063,7.566,5.604,16.674,4.904
									c9.107-0.7,9.139-1.961,22.154-0.42c13.015,1.541,23.664,2.708,29.409,0.584c5.745-2.125,3.258-8.203,3.258-8.203
									L125.819,444.593z"/>
								<path id="XMLID_1012_" style="fill:#47CEF1;" d="M131.501,424.043c4.546,3.176,7.324,7.83,20.227,8.586
									c2.885,0.405,8.057-10.664,8.057-10.664s9.972,8.11,13.411,9.177c3.439,1.067,19.018,1.121,22.04,5.324
									c3.022,4.203,2.583,7.846,0,9.808c-2.583,1.962-10.71,2.242-39.993,0c-4.203,0-27.463,1.541-29.424-1.681
									c-1.962-3.223-1.681-4.937-0.701-9.685C126.099,430.161,131.501,424.043,131.501,424.043z"/>
								<g id="XMLID_446_">
									<path id="XMLID_447_" style="fill:#F2FDFC;" d="M164.119,424.518c-0.396-0.531-1.205-0.087-0.901,0.526
										c1.266,2.551,1.691,4.644,0.787,7.383c-0.242,0.731,0.869,1.191,1.238,0.522
										C166.742,430.232,165.889,426.891,164.119,424.518z"/>
									<path id="XMLID_448_" style="fill:#F2FDFC;" d="M169.875,430.022c-0.476-1.129-1.141-2.721-2.518-2.88
										c-0.392-0.045-0.531,0.485-0.303,0.73c2.115,2.267,1.909,5.465,2.015,8.333c0.038,1.037,1.583,1.041,1.614,0
										C170.747,434.03,170.733,432.057,169.875,430.022z"/>
									<path id="XMLID_449_" style="fill:#F2FDFC;" d="M171.719,430.763c-0.312,0.281-0.04,0.729,0.315,0.761
										c1.188,0.107,1.503,2.167,1.721,3.115c0.252,1.096,0.286,2.201,0.452,3.297c-0.001,0.018,0.007,0.032,0.007,0.049
										c0.011,0.068,0.017,0.137,0.029,0.206c0.002-0.001,0.005-0.003,0.007-0.004c0.204,0.617,1.277,0.868,1.513,0.004
										C176.178,436.674,174.219,428.514,171.719,430.763z"/>
								</g>
							</g>
						</g>
					</g>
					<g id="XMLID_1276_">
						<g id="XMLID_1275_">
							<path id="XMLID_16_" style="fill:#FED3B0;" d="M157.904,125.625c0,0-10.861,11.169-18.285,13.813
								c0,0,7.61,26.577,21.535,27.925c0,0-0.763-9.333,3.953-16.295c4.717-6.963,10.048-13.613,10.048-13.613l-12.112-15.999
								L157.904,125.625z"/>
							<path id="XMLID_1005_" style="fill:#E8A38B;" d="M167.269,147.955c4.045-5.706,7.887-10.501,7.887-10.501l-11.509-13.278
								C163.802,129.807,162.933,141.339,167.269,147.955z"/>
						</g>
						<g id="XMLID_1269_">
							<g id="XMLID_1040_">
								<path id="XMLID_1042_" style="fill:#FED3B0;" d="M182.63,147.819c3.313-1.688,11.421-8.833,13.003-14.796
									c2.522-1.471,4.624-3.047,2.102-4.834c-2.522-1.786-4.098-4.624-1.051-8.512c3.048-3.888,2.189-10.509,2.189-10.509
									s1.384-10.824-6.813-15.238c-8.197-4.414-19.598-9.059-32.208,5.233C147.241,113.455,173.326,152.559,182.63,147.819z"/>
								<path id="XMLID_1041_" style="fill:#E8A38B;" d="M192.059,93.931c-2.628-1.415-6.533-3.389-11.039-4.951l-5.865-1.655
									c-3.178-0.683-6.491-1.018-9.759-0.74l-14.036,29.418l12.364,9.623c0,0,4.964-7.232,8.931-7.841
									c3.966-0.609,11.952-1.943,14.296-9.392c2.344-7.449,6.334-0.445,8.731-0.667c1.109-0.103,2.281-0.403,3.267-0.875
									C198.866,103.424,197.883,97.067,192.059,93.931z"/>
							</g>
							<g id="XMLID_1031_">
								<path id="XMLID_1027_" style="fill:#393170;" d="M149.273,132.689c7.957,4.116,16.899-5.491,19.211-10.325
									c2.312-4.834,2.571-5.586,8.011-6.006c5.44-0.42,8.172-7.865,10.274-12.068c2.102-4.203,7.195,2.035,9.878,0
									c2.683-2.035,1.681-0.038,6.515-1.49c4.834-1.452,5.044-6.496,2.732-7.757c-2.312-1.261-6.287-0.841-5.981-3.363
									c0.306-2.522-0.535-5.39-3.267-5.532c-2.732-0.142-9.458,0.698-10.088-2.664c-0.63-3.363-2.312-5.254-5.675-5.044
									c-3.363,0.21-6.305,2.522-9.668,1.681c-3.363-0.841-10.298-3.573-12.4,2.102c-2.102,5.675-5.465,2.312-8.407,4.834
									c-2.942,2.522-0.42,3.783-3.993,8.197c-3.573,4.414-7.731,5.051-4.414,11.349c3.317,6.298,1.681,5.254,0.841,8.407
									c-0.841,3.152,0.014,3.965,1.539,6.067c1.525,2.102,1.296,4.651,0.93,6.333
									C144.944,129.089,146.215,131.107,149.273,132.689z"/>
								<path id="XMLID_1024_" style="fill:#495A91;" d="M205.894,95.042c-2.312-1.261-6.287-0.841-5.981-3.363
									c0.306-2.522-0.535-5.39-3.267-5.532c-2.732-0.142-9.458,0.698-10.088-2.664c-0.63-3.363-2.312-5.254-5.675-5.044
									c-3.363,0.21-6.305,2.522-9.668,1.681c-3.363-0.841-10.298-3.573-12.4,2.102c-0.079,0.212-0.162,0.387-0.244,0.574
									c0.267-0.053,0.536-0.096,0.81-0.118c1.895-0.157,3.945,0.589,4.958,2.197c0.379,0.602,0.606,1.302,1.067,1.844
									c1.024,1.204,2.876,1.274,4.407,0.878c1.53-0.396,2.977-1.155,4.553-1.285c1.575-0.13,3.416,0.661,3.718,2.213
									c0.144,0.741-0.089,1.51,0.01,2.258c0.176,1.326,1.398,2.328,2.7,2.635c1.302,0.307,2.668,0.051,3.963-0.283
									c1.055-0.272,2.124-0.6,3.21-0.518c1.086,0.082,2.217,0.685,2.554,1.72c0.13,0.401,0.135,0.836,0.288,1.229
									c0.432,1.107,1.791,1.441,2.853,1.975c2.117,1.064,3.41,3.385,3.693,5.737c0.02,0.164,0.025,0.329,0.037,0.493
									c1.784-1.118,1.458,0.325,5.771-0.971C207.996,101.347,208.206,96.303,205.894,95.042z"/>
							</g>
							<g id="XMLID_1036_">
								<path id="XMLID_996_" style="fill:#393170;" d="M195.604,114.536c-0.031-0.185-0.234-0.302-0.405-0.309
									c-1.881-0.074-3.603,0.533-5.048,1.733c-0.08,0.066-0.119,0.141-0.131,0.217c-0.118,0.115-0.228,0.241-0.322,0.39
									c-0.029,0.046-0.044,0.095-0.051,0.145c-0.076,0.068-0.154,0.128-0.228,0.202c-0.146,0.147-0.135,0.348-0.048,0.502
									c0.021,0.067,0.052,0.13,0.102,0.181c0.119,0.154,0.34,0.244,0.551,0.148c0.957-0.433,1.949-0.71,2.999-0.782
									c0.601-0.041,1.344,0.139,1.914-0.131C195.805,116.421,195.735,115.326,195.604,114.536z"/>
								<path id="XMLID_993_" style="fill:#393170;" d="M193.436,119.911c-0.545-0.055-0.858,0.499-1.014,0.933
									c-0.018,0.051-0.027,0.103-0.042,0.154c-0.125,0.293-0.19,0.614-0.184,0.945c0.001,0.074,0.021,0.136,0.049,0.19
									c0.009,0.183,0.027,0.366,0.06,0.549c0.036,0.198,0.217,0.289,0.398,0.29c0.179,0.069,0.403,0.023,0.526-0.155
									C193.594,122.293,194.755,120.044,193.436,119.911z"/>
								<g id="XMLID_1032_">
									<path id="XMLID_990_" style="fill:#393170;" d="M191.496,134.853c-0.109-0.732-1.79-1.204-2.447-1.459
										c-1.389-0.54-5.685-1.497-5.976-1.32c-1.16,0.704-0.56,3.197-0.206,4.194c0.748,2.105,4.116,3.443,5.28,3.105
										c1.208-0.351,2.721-1.698,3.01-3.129C191.436,135.746,191.552,135.23,191.496,134.853z"/>
									<path id="XMLID_989_" style="fill:#F9F9F9;" d="M183.149,132.052c-0.459,0.009-0.694,0.576-0.723,1.215
										c0.875,0.507,8.703,2.623,8.979,2.472c0.167-0.388,0.329-1.157-0.353-1.52c-0.682-0.362-2.548-1.104-4.372-1.512
										C184.857,132.298,184.103,132.034,183.149,132.052z"/>
									<path id="XMLID_37_" style="fill:#DD5F78;" d="M182.63,135.47c0,0,4.266-0.093,6.83,3.208
										c-0.696,0.442-1.344,0.924-2.22,0.706c-0.875-0.219-2.616-0.602-3.89-2.243C182.773,136.366,182.63,135.47,182.63,135.47z"
										/>
								</g>
							</g>
							<path id="XMLID_17_" style="fill:#FED3B0;" d="M170.981,123.216c-1.31,3.876-5.002,6.128-8.246,5.032
								c-3.244-1.097-4.811-5.128-3.501-9.003c1.31-3.875,5.002-6.128,8.246-5.031C170.724,115.31,172.291,119.34,170.981,123.216z"
								/>
						</g>
					</g>
					<g id="XMLID_1279_">
						<path id="XMLID_1002_" style="fill:#39D3F9;" d="M142.631,137.019c0,0,20.902,26.796,22.476,34.856
							c1.574,8.061-30.669,45.913-30.669,58.72c0,12.807,1.107,25.91,1.107,25.91s-55.117,7.371-70.604-12.713
							c0,0-2.278-44.681,30.064-78.845S142.631,137.019,142.631,137.019z"/>
						<path id="XMLID_1057_" style="fill:#31B9E8;" d="M143.402,185.865c0.157,2.567-24.66,48.514-59.747,39.661
							c0,0,14.968,8.548,27.595,6.266c0,0-31.274,22.629-45.867,0.771c-0.66,6.937-0.442,11.229-0.442,11.229
							c15.488,20.084,70.604,12.713,70.604,12.713s-1.107-13.103-1.107-25.91c0-8.271,13.441-26.981,22.543-41.373L143.402,185.865z
							"/>
					</g>
					<g id="XMLID_1278_">
						<path id="XMLID_1007_" style="fill:#247FBC;" d="M152.766,224.272c0,0,20.828,7.644,28.651-17.179
							C181.417,207.093,161.796,171.2,152.766,224.272z"/>
						<g id="XMLID_1277_">
							<path id="XMLID_1001_" style="fill:#FED3B0;" d="M146.174,159.726c5.162-1.728,13.163,0.419,17.472,9.894
								c4.309,9.475,16.641,45.042,22.106,48.63c8.03,5.272,59.972,25.542,59.972,25.542l-4.907,13.548
								c0,0-67.609-12.905-75.653-23.267C157.121,223.71,123.358,167.363,146.174,159.726z"/>
							<path id="XMLID_1265_" style="fill:#E8A38B;" d="M142.631,188.017c0,0-0.146,1.211-0.35,3.081
								c4.593,12.928,12.297,26.811,17.85,35.595c2.46-8.601,7.961-18.395,20.978-15.225c-3.933-7.622-8.737-19.954-12.53-29.659
								l-7.521-3.677L142.631,188.017z"/>
						</g>
						<path id="XMLID_1010_" style="fill:#39D3F9;" d="M181.417,207.093c-5.736-12.301-14.207-31.289-17.192-37.853
							c-4.309-9.475-12.922-11.336-18.051-9.514c-24.194,8.594-5.373,45.21,6.593,64.546
							C159.389,208.684,175.884,201.968,181.417,207.093z"/>
						<g id="XMLID_1003_">
							<g id="XMLID_1004_">
								<path id="XMLID_1009_" style="fill:#AA793F;" d="M284.849,195.97c12.566,6.817,16.697,15.215,15.912,24.23
									c-0.784,9.014-3.518,24.957-18.55,25.609c-5.678-0.216-12.829-4.247-13.763-3.865c-0.934,0.382-4.216,1.239-5.548,4.648
									c-1.332,3.409-3.145,14.755-6.238,16.882c-3.093,2.126-4.57,2.051-7.316,1.61c-2.746-0.442,20.438-41.228,20.438-41.228
									L284.849,195.97z"/>
								<path id="XMLID_1006_" style="fill:#FCEE88;" d="M269.265,240.966c-7.843,2.297-8.651,6.064-10.312,11.089
									c-1.66,5.025-1.775,8.986-4.831,11.871c-3.057,2.885-9.173,0.669-9.623-3.95c-0.45-4.619,9.969-12.675,11.562-18.065
									c1.594-5.39,0.11-8.309,0.11-8.309L269.265,240.966z"/>
								<path id="XMLID_1008_" style="fill:#FCBB43;" d="M271.58,242.824c23.035,6.368,28.974-15.04,26.185-30.576
									c-2.665-14.845-23.646-25.157-36.035-16.013c-8.835,6.52-23.991,25.452-9.177,35.333
									C267.368,241.449,271.58,242.824,271.58,242.824z"/>
							</g>
							<path id="XMLID_1022_" style="fill:#FED3B0;" d="M242.682,244.142c0,0,6.871-7.319,9.986-8.397
								c3.115-1.078,3.796-1.314,3.796-1.314s0.982,2.426,0.412,4.096c0,0,6.527-0.308,8.715,1.416
								c2.188,1.724,2.712,3.412,0.782,4.806c0,0,2.589,1.932,1.469,3.923c-1.12,1.99-3.02,2.171-3.02,2.171
								s1.851,1.049,0.946,3.401c-0.905,2.352-2.805,2.352-2.805,2.352s1.496,0.975-0.042,3.418
								c-1.538,2.443-5.238,2.433-5.238,2.433s0.712-1.133,0.895-2.132c0,0-9.015,2.132-18-3.072L242.682,244.142z"/>
						</g>
					</g>
				</g>
			</g>
		</g>
	</g>
</g>
</svg>
