<svg width="100%" height="100%" viewBox="0 0 479 667" fill="none" xmlns="http://www.w3.org/2000/svg">
<path d="M94.3375 97.5359C103.771 80.7357 182.217 25.5907 220.261 0.118286H237.95L330.181 29.8686C369.489 59.4244 450.714 121.569 461.159 133.703C474.215 148.87 476.32 277.788 478.426 312.204C480.111 339.738 476.32 439.007 461.159 484.118L386.194 619.041C362.75 629.93 310.219 653.574 287.645 661.041C259.428 670.375 209.733 668.624 176.041 644.124C142.349 619.624 79.5973 551.373 77.4916 543.79C75.3858 536.207 0 393.872 0 322.121C0 250.371 20.2152 216.537 32.8497 190.87C45.4842 165.203 82.5453 118.536 94.3375 97.5359Z" fill="#C6B9A6"/>
<path d="M245.698 98.3495L221.656 2.72043C174.275 30.3032 120.992 74.0627 100.273 92.4946L96.7544 98.3495L137.802 136.081L245.698 98.3495Z" fill="#BCAF9F"/>
<path d="M248.043 97.6989L225.76 3.37097L236.315 1.41936L248.043 97.6989Z" fill="#BCAF9F"/>
<path d="M252.148 96.3978L240.42 4.0215C246.519 4.0215 300.818 22.6702 327.206 31.9946L329.551 65.172L353.007 93.1451L359.457 106.156L347.729 136.731L333.656 130.876L329.551 125.021L323.101 118.516H315.478L293.195 114.613L262.703 104.204L252.148 96.3978Z" fill="#B7AA9B"/>
<path d="M331.897 63.871L330.138 32.6452L349.489 45.0054L458.557 132.177L462.076 138.032C459.73 139.116 454.804 141.675 453.866 143.237C452.928 144.798 449.957 150.392 448.589 152.995L430.41 173.812L406.955 199.833L395.227 197.231L388.19 184.22L357.112 145.839L351.248 138.032L359.457 115.263L361.803 103.554L355.352 92.4946L341.866 77.5323L331.897 63.871Z" fill="#B5A797"/>
<path d="M405.782 209.591L398.745 214.145L394.641 218.048L396.4 234.962V324.086L398.745 394.344V464.602L409.3 471.758H427.478L449.761 480.215H460.903L469.699 438.581C477.204 384.456 476.735 346.638 475.562 334.495V296.113L472.044 220L466.767 156.247L460.903 144.538L453.866 149.091L446.243 160.151L409.3 202.435L405.782 209.591Z" fill="#9D9284"/>
<path d="M408.714 473.71L397.573 466.554L393.468 472.409L388.19 485.419C377.244 498.213 351.13 528.615 334.242 547.871C317.354 567.127 288.895 589.289 276.776 597.962C275.994 601.866 274.431 610.192 274.431 612.274C274.431 614.356 266.221 648.271 262.116 664.968L276.776 659.113H288.504C319.778 644.801 382.796 616.308 384.672 616.828C386.548 617.348 388.972 609.672 389.95 605.769L450.934 499.731L460.316 482.817L449.761 481.516L440.965 478.263C436.665 476.746 427.948 473.71 427.478 473.71H408.714Z" fill="#6D665D"/>
<path d="M266.221 640.898C265.283 645.061 261.921 658.245 260.357 664.317C249.02 663.45 223.884 661.064 214.032 658.462C204.181 655.86 190.772 649.572 185.299 646.753L157.152 626.586L115.519 585.602L82.6809 548.521C91.8677 547.871 106.723 540.064 112 543.317C114.051 544.581 128.81 551.774 134.283 551.774L148.943 546.57C167.512 555.677 206.057 572.982 209.341 574.543C212.625 576.104 255.08 592.107 271.499 599.914L273.258 606.419C271.889 609.889 268.918 617.088 267.98 618.129C267.042 619.17 264.462 617.261 263.289 616.177H252.148L260.357 618.129L267.98 622.683C267.785 627.02 267.159 636.734 266.221 640.898Z" fill="#83796E"/>
<path d="M36.3562 324.737C33.0724 325.778 14.2688 332.11 5.2775 335.145H1.75916L5.2775 353.36L18.7645 402.151L53.9479 491.274L81.5082 549.172L99.0999 541.366C103.205 541.149 111.766 540.845 113.173 541.366C114.581 541.886 127.051 546.787 133.111 549.172L146.598 545.269C143.666 540.715 137.567 531.217 136.629 529.656C135.691 528.095 126.074 503.418 121.383 491.274L102.032 421.016L85.0266 339.049L77.4035 309.124C73.2988 308.256 64.7375 307.042 63.3301 309.124C61.9228 311.206 56.4889 316.063 53.9479 318.231C49.4522 319.966 39.64 323.696 36.3562 324.737Z" fill="#A39788"/>
<path d="M38.7017 320.833C36.3562 320.833 13.487 329.074 2.34555 333.194L1.17277 320.833C0.977302 315.195 0.938209 301.577 2.34555 292.21C4.10472 280.5 11.1414 244.07 11.7278 241.468C12.1969 239.386 25.2148 209.808 31.6651 195.28C38.8972 183.787 53.5961 160.541 54.5343 159.5C55.4725 158.459 81.5082 120.034 94.4088 100.952L96.168 103.554H98.5135L134.87 136.081C133.892 136.948 131.703 139.073 130.765 140.634C129.592 142.586 124.901 154.946 124.315 156.898C123.846 158.459 108.873 198.749 101.445 218.699L96.168 236.914H92.6496C92.0632 236.263 90.5386 234.702 89.1313 233.661C87.3721 232.36 87.9585 230.409 86.1993 226.505C84.4402 222.602 83.8538 223.253 81.5082 221.952C79.1627 220.651 78.5763 218.699 76.8171 217.398C75.4098 216.357 72.7124 211.326 71.5396 208.941V216.747C76.0352 222.168 85.2611 233.401 86.1993 234.962C87.3721 236.914 87.9585 236.914 89.1313 238.866C90.3041 240.817 87.3721 262.285 85.0266 277.247C82.681 292.21 80.9218 298.715 79.7491 300.016C78.8108 301.057 77.7944 305.22 77.4035 307.172C75.0579 306.305 69.4286 304.44 65.6757 303.919C60.9846 303.269 60.9846 309.774 58.639 312.376C56.7626 314.458 53.166 315.846 51.6023 316.28C48.2794 317.798 41.0473 320.833 38.7017 320.833Z" fill="#B2A799"/>
<path d="M103.435 227.806L136.613 142.586L175.645 127.624L248.505 100.301L296.645 118.516C301.633 119.384 311.998 121.248 313.559 121.769L325.269 125.672C327.004 127.841 330.603 132.308 331.124 132.828C331.774 133.479 347.387 141.285 348.688 141.935C349.729 142.456 372.541 172.511 383.817 187.473L392.274 199.833L394.226 212.844L390.973 218.048L394.226 233.011V348.156L359.747 372.876C339.147 378.514 294.954 389.14 282.984 386.538C268.021 383.285 271.274 382.634 266.72 382.634C263.077 382.634 245.253 376.129 236.796 372.876L86.5215 287.005L93.0269 245.371L103.435 227.806Z" fill="#AFA18E"/>
<path d="M238.747 376.129L86.5215 288.957L79.3656 307.172L91.0753 362.468L121 478.914L137.914 528.355L148.323 543.968L272.575 597.312L279.081 593.409C294.26 580.398 325.009 554.246 326.57 553.726C328.131 553.205 335.027 543.534 338.28 538.763L267.371 385.237L238.747 376.129Z" fill="#ACA090"/>
<path d="M295.344 443.785L269.323 385.237L280.382 387.839L295.344 389.14L361.048 374.177L394.226 350.108L396.177 354.661L396.828 454.194V464.602L392.274 470.457L386.419 485.419L338.93 537.462L335.027 526.403L295.344 443.785Z" fill="#B0A393"/>
<g opacity="0.4">
<path d="M131.826 247.464C139.415 235.323 202.513 195.472 233.113 177.065H247.341L321.527 198.564C353.144 219.922 418.478 264.832 426.879 273.6C437.38 284.561 439.074 377.724 440.767 402.596C442.122 422.493 439.074 494.23 426.879 526.83L366.581 624.333C347.724 632.202 305.47 649.289 287.313 654.685C264.617 661.429 224.644 660.165 197.544 642.459C170.444 624.754 119.97 575.432 118.276 569.952C116.583 564.472 55.9463 461.613 55.9463 409.762C55.9463 357.911 72.2063 333.461 82.3689 314.912C92.5314 296.364 122.341 262.64 131.826 247.464Z" fill="url(#paint0_linear_1_206)" style="mix-blend-mode:hard-light"/>
</g>
<g opacity="0.32">
<path d="M125.34 77.8566C132.8 67.8159 194.832 34.8582 224.916 19.6344H238.903L311.837 37.4149C342.919 55.0791 407.149 92.2204 415.408 99.4721C425.732 108.537 427.397 185.585 429.063 206.155C430.395 222.61 427.397 281.939 415.408 308.9L356.129 389.537C337.591 396.045 296.051 410.176 278.201 414.639C255.888 420.217 216.59 419.171 189.948 404.529C163.306 389.886 113.684 349.095 112.019 344.563C110.354 340.031 50.7419 254.964 50.7419 212.081C50.7419 169.199 66.7273 148.978 76.7182 133.638C86.7091 118.298 116.016 90.4075 125.34 77.8566Z" fill="url(#paint1_linear_1_206)" style="mix-blend-mode:screen"/>
</g>
<g opacity="0.8">
<mask id="mask0_1_206" style="mask-type:alpha" maskUnits="userSpaceOnUse" x="86" y="100" width="309" height="287">
<path d="M103.436 227.807L136.613 142.586L175.645 127.624L248.505 100.301L296.645 118.516C301.633 119.384 311.998 121.248 313.559 121.769L325.269 125.672C327.004 127.841 330.603 132.308 331.124 132.828C331.774 133.479 347.387 141.285 348.688 141.936C349.729 142.456 372.541 172.511 383.817 187.473L392.274 199.833L394.226 212.844L390.973 218.048L394.226 233.011V348.156L359.747 372.876C339.147 378.514 294.954 389.14 282.984 386.538C268.022 383.285 271.274 382.634 266.721 382.634C263.078 382.634 245.253 376.129 236.796 372.876L86.5216 287.005L93.027 245.371L103.436 227.807Z" fill="#B3A696"/>
</mask>
<g mask="url(#mask0_1_206)">
<path fill-rule="evenodd" clip-rule="evenodd" d="M220.699 277.806L189.094 309.412C187.829 310.676 178.734 327.497 174.344 335.75V349.973L182.246 381.578L194.361 399.488L205.797 408.135L204.045 395.726L197.522 372.629L201.146 360.358C202.595 358.313 205.857 353.862 207.306 352.419C208.756 350.975 220.956 340.028 226.875 334.735L244.632 326.795L267.824 328.96L289.567 350.614C290.437 351.48 296.694 363.005 299.714 368.659V378.403L294.278 400.057L285.944 412.328L271.086 423.515L269.476 424.317L287.072 418.452L308.669 408.97L313.41 375.257L322.892 341.544L317.624 323.634C315.517 320.649 310.776 314.153 308.669 312.046C306.562 309.938 288.828 293.96 280.224 286.234L254.412 274.645L220.699 277.806Z" fill="url(#paint2_linear_1_206)"/>
<path d="M279.787 357.824L263.177 341.347L245.46 339.699L231.896 345.741C227.375 349.768 218.055 358.099 216.947 359.197C215.84 360.296 213.349 363.683 212.241 365.239L209.473 374.576L214.456 392.152L216.947 409.728L228.297 414.671L241.585 419.065H254.042L265.669 413.298L277.018 404.784L283.385 395.447L287.538 378.97V371.555C285.231 367.253 280.451 358.483 279.787 357.824Z" fill="url(#paint3_linear_1_206)"/>
</g>
<mask id="mask1_1_206" style="mask-type:alpha" maskUnits="userSpaceOnUse" x="269" y="350" width="128" height="188">
<path d="M295.344 443.785L269.323 385.237L280.382 387.839L295.344 389.14L361.049 374.177L394.226 350.108L396.178 354.661L396.828 454.194V464.602L392.274 470.457L386.42 485.419L338.93 537.462L335.027 526.403L295.344 443.785Z" fill="#9C8D7A"/>
</mask>
<g mask="url(#mask1_1_206)">
<path fill-rule="evenodd" clip-rule="evenodd" d="M220.7 277.806L189.094 309.412C187.83 310.676 178.734 327.497 174.344 335.75V349.973L182.246 381.578L194.361 399.488L205.797 408.135L204.045 395.726L197.522 372.629L201.146 360.359C202.595 358.313 205.857 353.862 207.306 352.419C208.756 350.975 220.956 340.028 226.875 334.735L244.632 326.795L267.825 328.96L289.568 350.614C290.437 351.48 296.694 363.005 299.714 368.659V378.403L294.279 400.057L285.944 412.328L271.086 423.516L269.476 424.317L287.072 418.452L308.669 408.97L313.41 375.257L322.892 341.544L317.624 323.634C315.517 320.649 310.776 314.153 308.669 312.046C306.562 309.939 288.828 293.96 280.224 286.234L254.413 274.645L220.7 277.806Z" fill="url(#paint4_linear_1_206)"/>
<path d="M279.787 357.824L263.177 341.347L245.461 339.699L231.896 345.741C227.375 349.769 218.055 358.099 216.948 359.197C215.84 360.296 213.349 363.683 212.242 365.239L209.473 374.576L214.456 392.152L216.948 409.728L228.297 414.671L241.585 419.065H254.042L265.669 413.298L277.019 404.784L283.385 395.447L287.538 378.97V371.555C285.231 367.253 280.451 358.483 279.787 357.824Z" fill="url(#paint5_linear_1_206)"/>
</g>
<mask id="mask2_1_206" style="mask-type:alpha" maskUnits="userSpaceOnUse" x="79" y="288" width="260" height="310">
<path d="M238.747 376.129L86.5216 288.957L79.3657 307.172L91.0754 362.468L121 478.914L137.914 528.355L148.323 543.968L272.575 597.312L279.081 593.409C294.26 580.398 325.009 554.246 326.57 553.726C328.131 553.205 335.027 543.534 338.28 538.763L267.371 385.237L238.747 376.129Z" fill="#9C8D7A"/>
</mask>
<g mask="url(#mask2_1_206)">
<path fill-rule="evenodd" clip-rule="evenodd" d="M220.7 277.806L189.094 309.412C187.83 310.676 178.734 327.497 174.344 335.75V349.972L182.246 381.578L194.361 399.488L205.797 408.135L204.045 395.726L197.522 372.629L201.146 360.358C202.595 358.313 205.857 353.862 207.306 352.419C208.756 350.975 220.956 340.028 226.875 334.735L244.632 326.795L267.825 328.96L289.568 350.614C290.437 351.48 296.694 363.005 299.714 368.659V378.403L294.279 400.057L285.944 412.328L271.086 423.515L269.476 424.317L287.072 418.452L308.669 408.97L313.41 375.257L322.892 341.544L317.624 323.634C315.517 320.649 310.776 314.152 308.669 312.045C306.562 309.938 288.828 293.96 280.224 286.234L254.413 274.645L220.7 277.806Z" fill="url(#paint6_linear_1_206)"/>
<path d="M279.787 357.824L263.177 341.347L245.461 339.699L231.896 345.741C227.375 349.768 218.055 358.099 216.948 359.197C215.84 360.296 213.349 363.683 212.242 365.239L209.473 374.576L214.456 392.152L216.948 409.727L228.297 414.671L241.585 419.065H254.042L265.669 413.297L277.019 404.784L283.385 395.447L287.538 378.97V371.555C285.231 367.253 280.451 358.483 279.787 357.824Z" fill="url(#paint7_linear_1_206)"/>
</g>
</g>
<defs>
<linearGradient id="paint0_linear_1_206" x1="248.505" y1="177.065" x2="248.505" y2="658.462" gradientUnits="userSpaceOnUse">
<stop stop-color="#B6A68F" stop-opacity="0"/>
<stop offset="1" stop-color="#4D4D4D"/>
</linearGradient>
<linearGradient id="paint1_linear_1_206" x1="240.048" y1="19.6344" x2="240.048" y2="417.763" gradientUnits="userSpaceOnUse">
<stop stop-color="#9D917F"/>
<stop offset="1" stop-color="#9C8C74" stop-opacity="0"/>
</linearGradient>
<linearGradient id="paint2_linear_1_206" x1="248.618" y1="274.645" x2="248.618" y2="424.317" gradientUnits="userSpaceOnUse">
<stop stop-color="#847766"/>
<stop offset="1" stop-color="#9B8E7E" stop-opacity="0"/>
</linearGradient>
<linearGradient id="paint3_linear_1_206" x1="248.505" y1="339.699" x2="248.505" y2="419.065" gradientUnits="userSpaceOnUse">
<stop stop-color="#7C6F5F"/>
<stop offset="1" stop-color="#A09689" stop-opacity="0.24"/>
</linearGradient>
<linearGradient id="paint4_linear_1_206" x1="248.618" y1="274.645" x2="248.618" y2="424.317" gradientUnits="userSpaceOnUse">
<stop stop-color="#847766"/>
<stop offset="1" stop-color="#9B8E7E" stop-opacity="0"/>
</linearGradient>
<linearGradient id="paint5_linear_1_206" x1="248.506" y1="339.699" x2="248.506" y2="419.065" gradientUnits="userSpaceOnUse">
<stop stop-color="#7C6F5F"/>
<stop offset="1" stop-color="#A09689" stop-opacity="0.24"/>
</linearGradient>
<linearGradient id="paint6_linear_1_206" x1="248.618" y1="274.645" x2="248.618" y2="424.317" gradientUnits="userSpaceOnUse">
<stop stop-color="#847766"/>
<stop offset="1" stop-color="#9B8E7E" stop-opacity="0.3"/>
</linearGradient>
<linearGradient id="paint7_linear_1_206" x1="248.506" y1="339.699" x2="248.506" y2="419.065" gradientUnits="userSpaceOnUse">
<stop stop-color="#7C6F5F"/>
<stop offset="1" stop-color="#A09689" stop-opacity="0.39"/>
</linearGradient>
</defs>
</svg>
