<svg width="100%" height="100%" viewBox="0 0 394 710" fill="none" xmlns="http://www.w3.org/2000/svg">
<path d="M155.364 23.5492L192.221 0.714355L207.815 10.4019L281.529 55.3795L344.611 134.955L380.76 210.38L393.518 433.884C373.199 480.707 330.719 578.089 323.348 593.036C315.976 607.982 248.924 676.763 216.32 709.286L185.842 696.83L143.315 653.929L80.9409 559.821C56.6057 517.381 6.65954 430.563 1.55624 422.813C-3.54706 415.063 10.7705 281.652 18.5672 215.915L27.0727 163.326L155.364 23.5492Z" fill="url(#paint0_linear_1_145)"/>
<path d="M155.657 26.1387L192.255 3.48227L207.738 13.0941L280.934 57.7204L343.572 136.675L379.465 211.509L392.134 433.268C371.958 479.725 329.777 576.347 322.458 591.176C315.138 606.006 248.559 674.25 216.184 706.518L185.921 694.16L143.693 651.593L81.7582 558.221C57.5944 516.112 7.99992 429.972 2.93256 422.283C-2.1348 414.593 12.082 282.225 19.8238 217.002L28.2694 164.823L155.657 26.1387Z" fill="url(#paint1_linear_1_145)" style="mix-blend-mode:darken"/>
<path opacity="0.32" d="M163.312 34.4186L191.251 11.7858L224.919 24.5783L291.205 80.6682L337.421 153.36L363.73 191.864L382.446 418.219C363.74 459.705 324.631 545.989 317.845 559.232C311.058 572.475 249.328 633.417 219.311 662.232L191.251 651.196L152.099 613.184L94.6752 529.803C72.2712 492.199 26.2887 415.276 21.5904 408.409C16.8921 401.542 14.4125 304.23 21.5904 245.986L30.7395 220.188L163.312 34.4186Z" fill="url(#paint2_linear_1_145)"/>
<path opacity="0.8" d="M165.333 262.665L193.365 248.438L205.225 254.473L261.29 282.497L309.268 332.076L336.761 379.069L346.464 518.323C331.011 547.495 298.702 608.169 293.095 617.482C287.489 626.794 236.492 669.648 211.694 689.911L188.514 682.151L156.169 655.421L108.73 596.788C90.2212 570.345 52.234 516.253 48.3526 511.425C44.4712 506.596 55.3606 423.475 61.2905 382.518L67.7595 349.752L165.333 262.665Z" fill="url(#paint3_linear_1_145)"/>
<path opacity="0.4" d="M107.737 206.92C130.341 188.698 176.518 151.563 180.393 148.795L188.696 139.107L199.076 134.955L217.759 148.795L300.795 218.683L294.567 332.857L300.795 422.121L250.973 535.603L193.54 575.737L180.393 547.366L134.031 505.848L91.8214 438.036L100.817 412.433V283.728L107.737 206.92Z" fill="url(#paint4_linear_1_145)"/>
<path opacity="0.48" d="M183.161 41.5403C182.607 40.9867 165.4 29.7769 156.866 24.2412C157.973 23.134 180.854 9.47929 192.156 2.7903L189.388 43.6162C187.543 43.1549 183.714 42.0939 183.161 41.5403Z" fill="url(#paint5_linear_1_145)"/>
<path opacity="0.48" d="M191.464 31.8528L192.848 3.48227C193.955 3.48227 251.435 38.0805 280.036 55.3796L280.728 57.4555C277.268 65.7591 270.21 82.5046 269.656 83.0582C268.964 83.7501 254.433 141.875 252.357 148.103C250.696 153.085 236.442 155.714 229.522 156.406L219.835 148.103L199.076 133.572V121.116L202.536 99.6653L191.464 49.8439V31.8528Z" fill="url(#paint6_linear_1_145)"/>
<path opacity="0.48" d="M280.728 60.2233L282.804 58.8394L343.004 134.955L337.469 150.179L334.009 161.25C336.315 169.323 340.652 185.746 339.545 186.853C338.438 187.96 314.173 207.612 302.179 217.299L288.339 206.92L267.58 188.237L246.821 169.554L245.438 166.786L252.357 151.563L255.125 145.335L264.121 109.353L269.656 87.9019L280.728 60.2233Z" fill="url(#paint7_linear_1_145)"/>
<path opacity="0.48" d="M360.996 196.54L378.987 210.38L387.29 345.313L392.134 433.192H348.54L302.871 419.353L300.795 410.357L299.411 375.067V367.455L300.795 355L295.951 332.857L302.179 220.759L305.638 217.991L312.558 210.38L340.929 186.853L360.996 196.54Z" fill="url(#paint8_linear_1_145)"/>
<path opacity="0.48" d="M347.848 434.576H391.442L334.009 567.433L320.862 595.112L308.406 586.808C290.415 569.74 253.049 537.264 253.049 535.603C253.049 533.942 262.737 511.615 266.888 501.697L298.027 431.116C299.411 428.348 302.317 422.674 302.87 422.121C303.424 421.567 333.086 430.194 347.848 434.576Z" fill="url(#paint9_linear_1_145)"/>
<path opacity="0.48" d="M190.772 623.482L193.54 577.121L249.589 537.679L253.049 539.063L287.647 569.509L307.714 588.192L320.17 595.804L291.799 629.018L215.683 707.902L193.54 660.156L190.772 623.482Z" fill="url(#paint10_linear_1_145)"/>
<path opacity="0.48" d="M337.469 157.79L343.696 137.031L378.295 207.612L363.071 195.848L340.929 184.777L337.469 157.79Z" fill="url(#paint11_linear_1_145)"/>
<path opacity="0.48" d="M187.312 680.223V694.755L212.915 706.518L199.076 676.763L192.848 662.232L187.312 680.223Z" fill="url(#paint12_linear_1_145)"/>
<path opacity="0.48" d="M185.237 677.455V693.371L142.335 650.469L76.5982 548.75L46.1518 496.853L6.70981 424.197L41.308 436.652L89.7455 442.188L131.263 507.232L178.317 548.75L191.464 577.813C190.542 591.191 188.696 618.223 188.696 619.33C188.696 620.438 190.542 647.009 191.464 660.156L185.237 677.455Z" fill="url(#paint13_linear_1_145)"/>
<path opacity="0.48" d="M44.7678 434.576L1.86606 420.045L19.8571 220.759L26.0848 181.317L29.5446 164.71L53.0714 170.246L56.5312 181.317L104.969 209.688L98.7411 281.652V412.433L88.3616 438.036L44.7678 434.576Z" fill="url(#paint14_linear_1_145)"/>
<path opacity="0.48" d="M55.1473 168.862L30.2366 163.326L48.9196 141.183L155.482 26.3171L183.161 42.9242L190.08 51.9198L199.768 99.6653L197 132.88L187.312 137.723L179.701 146.719L107.737 204.152L104.277 206.228L58.6071 180.625L55.1473 168.862Z" fill="url(#paint15_linear_1_145)"/>
<path opacity="0.08" d="M304.946 359.152L300.795 330.781V299.643L304.946 316.25L323.629 335.625L342.313 339.777C347.156 343.929 357.397 352.786 359.612 355C361.826 357.214 379.909 376.22 388.674 385.447V429.732H347.848L309.79 417.277L304.946 385.447V359.152Z" fill="url(#paint16_linear_1_145)"/>
<path opacity="0.2" d="M116.732 204.844L197 137.723L231.598 161.942L295.951 217.991L291.107 256.741C279.574 268.505 255.817 292.723 253.049 295.491C249.589 298.951 232.982 306.563 206.688 321.786C180.393 337.009 162.402 338.393 154.79 338.393C148.701 338.393 118.577 368.378 104.277 383.371V292.031L116.732 204.844Z" fill="url(#paint17_linear_1_145)"/>
<path opacity="0.4" fill-rule="evenodd" clip-rule="evenodd" d="M163.775 350.553L136.459 343.365V358.46L140.053 374.994L155.149 387.214L145.804 385.058L137.178 387.933L145.804 401.591L156.586 409.498L171.682 424.594L172.935 425.071L168.468 420.462L166.65 409.8V400.066L180.469 404.701L183.378 407.946L187.378 409.8L184.833 403.774L183.378 394.503L184.469 383.841L183.378 376.425L191.015 366.227L197.56 362.055L203.379 370.862L208.47 377.352L209.197 381.987L208.47 388.013V397.284L207.743 404.701L206.652 409.8L210.652 407.019L217.561 400.066L228.471 399.139V409.8L225.561 418.608L221.198 424.634L220.084 425.58L223.439 424.594L238.534 407.342L248.598 397.997L254.349 385.058H244.285L235.659 387.214L244.285 381.463L252.911 372.118L258.662 358.46V341.927L237.097 343.365L223.439 354.147L215.531 358.46L217.688 350.553L219.126 339.052V324.675L220.563 315.33L219.126 308.142L209.062 298.078L197.56 284.42L184.621 290.889L169.526 306.704L171.682 318.205L169.526 334.739L172.401 349.115L177.433 358.46L169.526 355.585L163.775 350.553Z" fill="url(#paint18_linear_1_145)"/>
<defs>
<linearGradient id="paint0_linear_1_145" x1="196.888" y1="0.67511" x2="196.888" y2="709.288" gradientUnits="userSpaceOnUse">
<stop stop-color="#0974F2"/>
<stop offset="1" stop-color="#37CFFF"/>
</linearGradient>
<linearGradient id="paint1_linear_1_145" x1="196.888" y1="3.44333" x2="196.888" y2="706.52" gradientUnits="userSpaceOnUse">
<stop stop-color="white"/>
<stop offset="1" stop-color="#37CFFF"/>
</linearGradient>
<linearGradient id="paint2_linear_1_145" x1="201.42" y1="34.3839" x2="201.42" y2="662.234" gradientUnits="userSpaceOnUse">
<stop stop-color="#002BC1"/>
<stop offset="0.535884" stop-color="#1873DD"/>
<stop offset="1" stop-color="#37CFFF"/>
</linearGradient>
<linearGradient id="paint3_linear_1_145" x1="196.914" y1="248.413" x2="196.914" y2="689.912" gradientUnits="userSpaceOnUse">
<stop stop-color="#002BC1" stop-opacity="0"/>
<stop offset="0.535884" stop-color="#1873DD" stop-opacity="0"/>
<stop offset="1" stop-color="#0BB5FE"/>
</linearGradient>
<linearGradient id="paint4_linear_1_145" x1="196.248" y1="134.931" x2="196.248" y2="575.738" gradientUnits="userSpaceOnUse">
<stop stop-color="#0BB5FE"/>
<stop offset="1" stop-color="#002BC1"/>
</linearGradient>
<linearGradient id="paint5_linear_1_145" x1="165.17" y1="4.86619" x2="189.388" y2="50.5358" gradientUnits="userSpaceOnUse">
<stop stop-color="#002BC1"/>
<stop offset="1" stop-color="#37CFFF"/>
</linearGradient>
<linearGradient id="paint6_linear_1_145" x1="236.096" y1="3.48227" x2="236.096" y2="156.406" gradientUnits="userSpaceOnUse">
<stop stop-color="#002BC1"/>
<stop offset="1" stop-color="#0BB5FE"/>
</linearGradient>
<linearGradient id="paint7_linear_1_145" x1="294.221" y1="58.8394" x2="294.221" y2="217.299" gradientUnits="userSpaceOnUse">
<stop stop-color="#002BC1"/>
<stop offset="1" stop-color="#0BB5FE"/>
</linearGradient>
<linearGradient id="paint8_linear_1_145" x1="322.246" y1="255.357" x2="380.371" y2="445.647" gradientUnits="userSpaceOnUse">
<stop stop-color="#002BC1"/>
<stop offset="1" stop-color="#0BB5FE"/>
</linearGradient>
<linearGradient id="paint9_linear_1_145" x1="302.87" y1="494.085" x2="345.772" y2="602.031" gradientUnits="userSpaceOnUse">
<stop stop-color="#002BC1"/>
<stop offset="1" stop-color="#0BB5FE"/>
</linearGradient>
<linearGradient id="paint10_linear_1_145" x1="255.471" y1="537.679" x2="255.471" y2="707.902" gradientUnits="userSpaceOnUse">
<stop offset="0.354167" stop-color="#002BC1"/>
<stop offset="1" stop-color="#0BB5FE"/>
</linearGradient>
<linearGradient id="paint11_linear_1_145" x1="357.882" y1="137.031" x2="357.882" y2="207.612" gradientUnits="userSpaceOnUse">
<stop stop-color="#002BC1"/>
<stop offset="1" stop-color="#0BB5FE"/>
</linearGradient>
<linearGradient id="paint12_linear_1_145" x1="200.114" y1="662.232" x2="200.114" y2="706.518" gradientUnits="userSpaceOnUse">
<stop offset="0.432292" stop-color="#002BC1"/>
<stop offset="1" stop-color="#0BB5FE"/>
</linearGradient>
<linearGradient id="paint13_linear_1_145" x1="98.7411" y1="511.384" x2="88.3616" y2="651.161" gradientUnits="userSpaceOnUse">
<stop stop-color="#002BC1"/>
<stop offset="1" stop-color="#0BB5FE"/>
</linearGradient>
<linearGradient id="paint14_linear_1_145" x1="105.661" y1="214.531" x2="6.01783" y2="429.732" gradientUnits="userSpaceOnUse">
<stop stop-color="#002BC1"/>
<stop offset="1" stop-color="#0BB5FE"/>
</linearGradient>
<linearGradient id="paint15_linear_1_145" x1="115.002" y1="26.3171" x2="115.002" y2="206.228" gradientUnits="userSpaceOnUse">
<stop stop-color="#002BC1"/>
<stop offset="1" stop-color="#0BB5FE"/>
</linearGradient>
<linearGradient id="paint16_linear_1_145" x1="344.734" y1="299.643" x2="344.734" y2="429.732" gradientUnits="userSpaceOnUse">
<stop stop-color="white"/>
<stop offset="1" stop-color="white" stop-opacity="0"/>
</linearGradient>
<linearGradient id="paint17_linear_1_145" x1="200.114" y1="137.723" x2="210.839" y2="338.393" gradientUnits="userSpaceOnUse">
<stop stop-color="white"/>
<stop offset="1" stop-color="white" stop-opacity="0"/>
</linearGradient>
<linearGradient id="paint18_linear_1_145" x1="197.56" y1="284.42" x2="197.56" y2="438.252" gradientUnits="userSpaceOnUse">
<stop stop-color="#37CFFF"/>
<stop offset="1" stop-color="white" stop-opacity="0.27"/>
</linearGradient>
</defs>
</svg>
