
<svg width="100%" height="100%" viewBox="0 0 494 740" fill="none" xmlns="http://www.w3.org/2000/svg">
<path d="M79.7779 93.5773C106.363 43.6758 159.108 6.02907 197.599 1.96118C300.717 -6.61564 342.174 18.6712 354.693 31.2004C395.645 75.7089 480.167 170.964 490.64 195.914C503.731 227.103 475.371 435.498 460.429 498.053C449.146 545.293 443.745 553.57 442.288 555.565C399.774 613.774 279.368 741.323 256.005 739.763C226.802 737.814 170.409 683.234 167.388 678.361C164.367 673.488 50.5745 480.509 22.3781 408.386C-5.81831 336.263 0.223782 314.821 1.2308 309.947C2.23781 305.074 46.5464 155.954 79.7779 93.5773Z" fill="url(#paint0_linear_1_101)"/>
<g opacity="0.64">
<path d="M80.6607 95.5895C107.083 46.0547 159.505 8.68467 197.76 4.64668C300.246 -3.86712 341.449 21.2339 353.892 33.671C394.593 77.8524 478.597 172.407 489.006 197.175C502.017 228.134 473.831 434.997 458.981 497.092C447.766 543.985 442.399 552.202 440.951 554.182C398.697 611.963 279.029 738.574 255.809 737.027C226.784 735.092 170.737 680.913 167.734 676.075C164.732 671.238 51.6361 479.678 23.6124 408.084C-4.41127 336.491 1.59381 315.207 2.59466 310.369C3.5955 305.532 47.6328 157.508 80.6607 95.5895Z" fill="url(#paint1_linear_1_101)" style="mix-blend-mode:overlay"/>
</g>
<g opacity="0.64">
<path d="M104.315 74.6688C126.081 41.8235 169.264 17.0443 200.777 14.3668C285.201 8.7215 319.142 25.3654 329.392 33.6121C362.92 62.9078 432.119 125.605 440.693 142.027C451.411 162.556 428.193 299.722 415.96 340.896C406.722 371.989 402.3 377.438 401.107 378.751C366.3 417.064 267.722 501.017 248.595 499.991C224.686 498.708 178.516 462.783 176.043 459.575C173.57 456.368 80.406 329.349 57.3212 281.877C34.2365 234.405 39.1832 220.292 40.0077 217.084C40.8321 213.877 77.1082 115.726 104.315 74.6688Z" fill="url(#paint2_linear_1_101)" style="mix-blend-mode:multiply"/>
</g>
<g opacity="0.8">
<path d="M111.816 294.224C133.192 261.379 175.605 236.6 206.554 233.922C289.471 228.277 322.806 244.921 332.873 253.168C365.802 282.463 433.766 345.16 442.187 361.583C452.713 382.111 429.909 519.277 417.895 560.451C408.822 591.545 404.479 596.993 403.308 598.306C369.122 636.62 272.305 720.573 253.519 719.546C230.037 718.263 184.692 682.339 182.262 679.131C179.833 675.923 88.3332 548.904 65.6607 501.432C42.9882 453.961 47.8466 439.847 48.6563 436.64C49.466 433.432 85.0943 335.281 111.816 294.224Z" fill="url(#paint3_linear_1_101)" style="mix-blend-mode:darken"/>
</g>
<path opacity="0.48" d="M302.818 170.048L157.204 185.621C144.764 186.952 101.127 279.146 80.8631 325.077C110.08 397.755 169.362 544.242 172.755 548.773C176.148 553.303 234.488 592.19 263.234 611.068C288.21 594.55 342.968 555.285 362.195 530.367C381.422 505.449 396.596 346.786 401.779 270.569C369.546 227.529 322.375 185.621 302.818 170.048Z" fill="url(#paint4_linear_1_101)"/>
<g opacity="0.4" filter="url(#filter0_f_1_101)">
<path d="M179.037 585.298C117.269 549.961 137.197 488.432 154.882 462.085C156.751 454.981 165.493 439.38 185.508 433.8C210.525 426.826 186.37 466.347 185.508 483.008C184.645 499.669 268.325 535.315 297.657 534.54C326.988 533.765 323.537 483.008 345.967 466.347C363.911 453.018 377.886 486.366 382.631 504.706C378.749 566.312 338.203 589.56 332.164 597.309C326.125 605.058 256.248 629.468 179.037 585.298Z" fill="#F9FD22"/>
</g>
<g opacity="0.64" filter="url(#filter1_i_1_101)">
<path d="M154.116 176.863C147.003 176.863 107.837 113.1 89.1434 81.2185C143.857 8.11876 188.996 -0.762516 256.02 1.97018C309.639 4.15635 340.826 21.0991 349.716 29.2972C334.67 71.4263 303.894 156.504 301.158 159.784C297.739 163.883 163.007 176.863 154.116 176.863Z" fill="url(#paint5_linear_1_101)"/>
</g>
<g opacity="0.64" filter="url(#filter2_i_1_101)">
<path d="M304.459 161.112C303.362 157.825 335.088 72.9996 351.088 30.9977C429.946 109.751 487.546 193.983 488.232 197.407C488.917 200.831 418.974 253.562 410.06 259.041C402.928 263.423 401.907 261.095 400.46 259.041C374.402 222.061 305.83 165.221 304.459 161.112Z" fill="url(#paint6_linear_1_101)"/>
</g>
<path opacity="0.64" d="M486.174 202.201C489.466 199.462 490.746 201.06 490.974 202.201C494.815 218.637 488.003 291.684 484.117 326.152C462.174 504.204 451.203 530.227 447.089 542.554C443.797 552.415 441.603 553.511 440.917 552.826C432.231 551 409.923 544.882 390.174 535.021C370.425 525.159 367.317 516.759 368.231 513.791C384.688 478.866 402.517 271.367 403.888 267.943C405.26 264.519 482.06 205.625 486.174 202.201Z" fill="url(#paint7_linear_1_101)"/>
<g opacity="0.64">
<g filter="url(#filter3_i_1_101)">
<path d="M485.63 201.659C488.921 198.92 490.201 200.518 490.43 201.659C494.27 218.095 487.458 291.142 483.573 325.61C461.63 503.662 450.658 529.685 446.544 542.012C443.252 551.873 441.058 552.969 440.372 552.284C431.687 550.458 409.378 544.34 389.629 534.479C369.88 524.617 366.772 516.217 367.686 513.249C384.143 478.324 401.972 270.825 403.344 267.401C404.715 263.977 481.515 205.083 485.63 201.659Z" fill="url(#paint8_linear_1_101)"/>
</g>
<path d="M485.63 201.659C488.921 198.92 490.201 200.518 490.43 201.659C494.27 218.095 487.458 291.142 483.573 325.61C461.63 503.662 450.658 529.685 446.544 542.012C443.252 551.873 441.058 552.969 440.372 552.284C431.687 550.458 409.378 544.34 389.629 534.479C369.88 524.617 366.772 516.217 367.686 513.249C384.143 478.324 401.972 270.825 403.344 267.401C404.715 263.977 481.515 205.083 485.63 201.659Z" stroke="white" stroke-opacity="0.16"/>
</g>
<g opacity="0.64" filter="url(#filter4_i_1_101)">
<path d="M404.574 541.869C407.353 541.869 431.413 550.841 441.603 553.825C379.906 638.653 300.099 708.287 268.602 732.844C265.359 734.451 258.458 737.526 256.79 736.976C254.706 736.287 263.043 719.074 265.128 716.319C266.795 714.116 264.433 640.58 263.043 604.088C299.728 581.504 342.178 545.157 359.316 528.173L359.328 528.157C360.731 526.303 365.325 520.233 368.65 523.529C372.819 527.66 401.1 541.869 404.574 541.869Z" fill="url(#paint9_linear_1_101)"/>
</g>
<g opacity="0.64" filter="url(#filter5_i_1_101)">
<path d="M261.259 607.611C261.259 607.063 259.43 605.1 258.516 604.187C229.944 584.327 172.252 544.471 170.058 543.923C167.864 543.376 131.201 568.348 113.144 580.903C119.178 594.052 153.601 651.667 170.058 678.832C199.681 712.798 236.801 732.247 251.659 737.726L265.373 715.127C266.745 626.786 261.259 608.296 261.259 607.611Z" fill="url(#paint10_linear_1_101)"/>
</g>
<g opacity="0.64" filter="url(#filter6_i_1_101)">
<path d="M3.42858 317.935C1.23428 317.935 1.14285 319.304 1.37142 319.989C2.74285 377.514 41.1431 445.31 48.686 461.746C56.2289 478.181 106.286 567.892 109.029 574.055C111.224 578.986 114.058 579.99 114.515 579.534C136.458 565.837 165.944 541.869 166.63 539.814C167.178 538.171 112.458 401.71 85.0291 333.685C82.9719 328.663 78.1719 318.893 75.429 319.989C72.6862 321.085 48.2289 319.533 36.3431 318.62C26.2859 318.391 5.62288 317.935 3.42858 317.935Z" fill="url(#paint11_linear_1_101)"/>
</g>
<g opacity="0.64" filter="url(#filter7_i_1_101)">
<path d="M88.4577 84.4133C87.9091 83.8655 86.4006 85.0982 85.7149 85.783C50.0575 154.264 15.0858 264.976 2.05719 311.771V315.88C18.9716 316.793 55.2689 318.62 65.1433 318.62C75.0176 318.62 77.9434 316.793 78.172 315.88C87.0863 289.857 146.058 182.342 147.43 179.602C148.801 176.863 89.1434 85.0982 88.4577 84.4133Z" fill="url(#paint12_linear_1_101)"/>
</g>
<path opacity="0.4" fill-rule="evenodd" clip-rule="evenodd" d="M208.629 367.331L214.696 327.125L234.55 305.645L239.513 277.555L272.603 316.66L283.082 356.866L300.73 348.054L310.105 319.965L320.032 356.866V402.58L300.73 449.947L296.55 456.078L310.105 412.538C309.554 402.914 306.686 379.523 306.245 378.016C305.923 376.917 300.493 390.451 296.937 399.314C295.619 402.6 294.559 405.243 294.112 406.261L285.839 421.953L266.751 447.716L277.015 406.261L272.603 380.527L261.573 359.814L243.925 344.75L247.234 354.792V369.856L234.55 378.016L225.174 398.729L222.968 417.559L226.829 427.602L214.144 421.953L200.357 410.655L187.672 391.197L191.24 418.673L208.532 462.444L202.27 454.864L181.606 421.307L173.333 387.159L177.194 334.836L192.084 361.823L208.629 367.331Z" fill="url(#paint13_linear_1_101)"/>
<defs>
<filter id="filter0_f_1_101" x="49.1437" y="344.984" width="421.487" height="354.052" filterUnits="userSpaceOnUse" color-interpolation-filters="sRGB">
<feFlood flood-opacity="0" result="BackgroundImageFix"/>
<feBlend mode="normal" in="SourceGraphic" in2="BackgroundImageFix" result="shape"/>
<feGaussianBlur stdDeviation="44" result="effect1_foregroundBlur_1_101"/>
</filter>
<filter id="filter1_i_1_101" x="89.1434" y="1.5508" width="260.573" height="176.312" filterUnits="userSpaceOnUse" color-interpolation-filters="sRGB">
<feFlood flood-opacity="0" result="BackgroundImageFix"/>
<feBlend mode="normal" in="SourceGraphic" in2="BackgroundImageFix" result="shape"/>
<feColorMatrix in="SourceAlpha" type="matrix" values="0 0 0 0 0 0 0 0 0 0 0 0 0 0 0 0 0 0 127 0" result="hardAlpha"/>
<feOffset dy="1"/>
<feGaussianBlur stdDeviation="8"/>
<feComposite in2="hardAlpha" operator="arithmetic" k2="-1" k3="1"/>
<feColorMatrix type="matrix" values="0 0 0 0 0.935417 0 0 0 0 0.691583 0 0 0 0 0.0645833 0 0 0 1 0"/>
<feBlend mode="normal" in2="shape" result="effect1_innerShadow_1_101"/>
</filter>
<filter id="filter2_i_1_101" x="304.431" y="30.9977" width="183.805" height="231.531" filterUnits="userSpaceOnUse" color-interpolation-filters="sRGB">
<feFlood flood-opacity="0" result="BackgroundImageFix"/>
<feBlend mode="normal" in="SourceGraphic" in2="BackgroundImageFix" result="shape"/>
<feColorMatrix in="SourceAlpha" type="matrix" values="0 0 0 0 0 0 0 0 0 0 0 0 0 0 0 0 0 0 127 0" result="hardAlpha"/>
<feOffset dy="1"/>
<feGaussianBlur stdDeviation="8"/>
<feComposite in2="hardAlpha" operator="arithmetic" k2="-1" k3="1"/>
<feColorMatrix type="matrix" values="0 0 0 0 0.935417 0 0 0 0 0.691583 0 0 0 0 0.0645833 0 0 0 1 0"/>
<feBlend mode="normal" in2="shape" result="effect1_innerShadow_1_101"/>
</filter>
<filter id="filter3_i_1_101" x="367.044" y="199.646" width="125.021" height="354.302" filterUnits="userSpaceOnUse" color-interpolation-filters="sRGB">
<feFlood flood-opacity="0" result="BackgroundImageFix"/>
<feBlend mode="normal" in="SourceGraphic" in2="BackgroundImageFix" result="shape"/>
<feColorMatrix in="SourceAlpha" type="matrix" values="0 0 0 0 0 0 0 0 0 0 0 0 0 0 0 0 0 0 127 0" result="hardAlpha"/>
<feOffset dy="1"/>
<feGaussianBlur stdDeviation="8"/>
<feComposite in2="hardAlpha" operator="arithmetic" k2="-1" k3="1"/>
<feColorMatrix type="matrix" values="0 0 0 0 0.935417 0 0 0 0 0.691583 0 0 0 0 0.0645833 0 0 0 1 0"/>
<feBlend mode="normal" in2="shape" result="effect1_innerShadow_1_101"/>
</filter>
<filter id="filter4_i_1_101" x="256.459" y="522.566" width="185.144" height="215.475" filterUnits="userSpaceOnUse" color-interpolation-filters="sRGB">
<feFlood flood-opacity="0" result="BackgroundImageFix"/>
<feBlend mode="normal" in="SourceGraphic" in2="BackgroundImageFix" result="shape"/>
<feColorMatrix in="SourceAlpha" type="matrix" values="0 0 0 0 0 0 0 0 0 0 0 0 0 0 0 0 0 0 127 0" result="hardAlpha"/>
<feOffset dy="1"/>
<feGaussianBlur stdDeviation="8"/>
<feComposite in2="hardAlpha" operator="arithmetic" k2="-1" k3="1"/>
<feColorMatrix type="matrix" values="0 0 0 0 0.935417 0 0 0 0 0.691583 0 0 0 0 0.0645833 0 0 0 1 0"/>
<feBlend mode="normal" in2="shape" result="effect1_innerShadow_1_101"/>
</filter>
<filter id="filter5_i_1_101" x="113.144" y="543.914" width="152.45" height="194.811" filterUnits="userSpaceOnUse" color-interpolation-filters="sRGB">
<feFlood flood-opacity="0" result="BackgroundImageFix"/>
<feBlend mode="normal" in="SourceGraphic" in2="BackgroundImageFix" result="shape"/>
<feColorMatrix in="SourceAlpha" type="matrix" values="0 0 0 0 0 0 0 0 0 0 0 0 0 0 0 0 0 0 127 0" result="hardAlpha"/>
<feOffset dy="1"/>
<feGaussianBlur stdDeviation="8"/>
<feComposite in2="hardAlpha" operator="arithmetic" k2="-1" k3="1"/>
<feColorMatrix type="matrix" values="0 0 0 0 0.935417 0 0 0 0 0.691583 0 0 0 0 0.0645833 0 0 0 1 0"/>
<feBlend mode="normal" in2="shape" result="effect1_innerShadow_1_101"/>
</filter>
<filter id="filter6_i_1_101" x="1.28601" y="317.935" width="165.348" height="262.698" filterUnits="userSpaceOnUse" color-interpolation-filters="sRGB">
<feFlood flood-opacity="0" result="BackgroundImageFix"/>
<feBlend mode="normal" in="SourceGraphic" in2="BackgroundImageFix" result="shape"/>
<feColorMatrix in="SourceAlpha" type="matrix" values="0 0 0 0 0 0 0 0 0 0 0 0 0 0 0 0 0 0 127 0" result="hardAlpha"/>
<feOffset dy="1"/>
<feGaussianBlur stdDeviation="8"/>
<feComposite in2="hardAlpha" operator="arithmetic" k2="-1" k3="1"/>
<feColorMatrix type="matrix" values="0 0 0 0 0.935417 0 0 0 0 0.691583 0 0 0 0 0.0645833 0 0 0 1 0"/>
<feBlend mode="normal" in2="shape" result="effect1_innerShadow_1_101"/>
</filter>
<filter id="filter7_i_1_101" x="2.05719" y="84.2768" width="145.396" height="235.343" filterUnits="userSpaceOnUse" color-interpolation-filters="sRGB">
<feFlood flood-opacity="0" result="BackgroundImageFix"/>
<feBlend mode="normal" in="SourceGraphic" in2="BackgroundImageFix" result="shape"/>
<feColorMatrix in="SourceAlpha" type="matrix" values="0 0 0 0 0 0 0 0 0 0 0 0 0 0 0 0 0 0 127 0" result="hardAlpha"/>
<feOffset dy="1"/>
<feGaussianBlur stdDeviation="8"/>
<feComposite in2="hardAlpha" operator="arithmetic" k2="-1" k3="1"/>
<feColorMatrix type="matrix" values="0 0 0 0 0.935417 0 0 0 0 0.691583 0 0 0 0 0.0645833 0 0 0 1 0"/>
<feBlend mode="normal" in2="shape" result="effect1_innerShadow_1_101"/>
</filter>
<linearGradient id="paint0_linear_1_101" x1="246.859" y1="0.181206" x2="246.859" y2="739.78" gradientUnits="userSpaceOnUse">
<stop stop-color="#FFD337"/>
<stop offset="1" stop-color="#F2B109"/>
</linearGradient>
<linearGradient id="paint1_linear_1_101" x1="246.718" y1="2.87978" x2="246.718" y2="737.043" gradientUnits="userSpaceOnUse">
<stop stop-color="#FCAE67"/>
<stop offset="0.505208" stop-color="#EAAE37"/>
<stop offset="1" stop-color="#FFEC40"/>
</linearGradient>
<linearGradient id="paint2_linear_1_101" x1="241.107" y1="13.1952" x2="241.107" y2="500.001" gradientUnits="userSpaceOnUse">
<stop stop-color="#F2B109"/>
<stop offset="1" stop-color="#EAAE37" stop-opacity="0.3"/>
</linearGradient>
<linearGradient id="paint3_linear_1_101" x1="246.164" y1="232.751" x2="246.164" y2="719.557" gradientUnits="userSpaceOnUse">
<stop stop-color="#F2B109" stop-opacity="0"/>
<stop offset="1" stop-color="#E87206"/>
</linearGradient>
<linearGradient id="paint4_linear_1_101" x1="241.321" y1="170.048" x2="241.321" y2="611.068" gradientUnits="userSpaceOnUse">
<stop stop-color="#EA7000"/>
<stop offset="0.557292" stop-color="#F2B109"/>
<stop offset="1" stop-color="#EA7000"/>
</linearGradient>
<linearGradient id="paint5_linear_1_101" x1="219.43" y1="1.5508" x2="219.43" y2="176.863" gradientUnits="userSpaceOnUse">
<stop stop-color="#EAA800"/>
<stop offset="0.463542" stop-color="#EA8C00"/>
<stop offset="1" stop-color="#F2B109"/>
</linearGradient>
<linearGradient id="paint6_linear_1_101" x1="396.334" y1="30.9977" x2="396.334" y2="261.529" gradientUnits="userSpaceOnUse">
<stop stop-color="#EA7000"/>
<stop offset="0.463542" stop-color="#EA9A00"/>
<stop offset="1" stop-color="#F2B109"/>
</linearGradient>
<linearGradient id="paint7_linear_1_101" x1="430.1" y1="200.689" x2="430.1" y2="552.99" gradientUnits="userSpaceOnUse">
<stop stop-color="#F2B109"/>
<stop offset="1" stop-color="#EA7000"/>
</linearGradient>
<linearGradient id="paint8_linear_1_101" x1="429.555" y1="200.147" x2="429.555" y2="552.448" gradientUnits="userSpaceOnUse">
<stop stop-color="#D92700"/>
<stop offset="0.463542" stop-color="#EAA800"/>
<stop offset="1" stop-color="#F2B109"/>
</linearGradient>
<linearGradient id="paint9_linear_1_101" x1="362.059" y1="496.671" x2="324.44" y2="684.329" gradientUnits="userSpaceOnUse">
<stop stop-color="#EA2A00"/>
<stop offset="0.463542" stop-color="#EA7000"/>
<stop offset="1" stop-color="#FFEC40"/>
</linearGradient>
<linearGradient id="paint10_linear_1_101" x1="148.801" y1="485.029" x2="189.264" y2="737.742" gradientUnits="userSpaceOnUse">
<stop stop-color="#EA2A00"/>
<stop offset="0.463542" stop-color="#EA8C00"/>
<stop offset="1" stop-color="#F9FD22"/>
</linearGradient>
<linearGradient id="paint11_linear_1_101" x1="83.9598" y1="317.935" x2="83.9598" y2="578.999" gradientUnits="userSpaceOnUse">
<stop stop-color="#EA3800"/>
<stop offset="0.463542" stop-color="#EA8C00"/>
<stop offset="1" stop-color="#F2B109"/>
</linearGradient>
<linearGradient id="paint12_linear_1_101" x1="74.755" y1="84.2768" x2="74.755" y2="318.62" gradientUnits="userSpaceOnUse">
<stop stop-color="#EA7000"/>
<stop offset="0.463542" stop-color="#EA9A00"/>
<stop offset="1" stop-color="#F2B109"/>
</linearGradient>
<linearGradient id="paint13_linear_1_101" x1="246.683" y1="277.555" x2="246.683" y2="462.444" gradientUnits="userSpaceOnUse">
<stop stop-color="#D90000"/>
<stop offset="1" stop-color="#EA7000" stop-opacity="0.24"/>
</linearGradient>
</defs>
</svg>
