<svg width="97" height="60" viewBox="0 0 97 60" fill="none" xmlns="http://www.w3.org/2000/svg">
<g clip-path="url(#clip0_24_99)">
<path fill-rule="evenodd" clip-rule="evenodd" d="M37.8825 59.6072C37.813 52.685 35.4064 45.8698 31.1331 40.475C26.8913 35.0607 20.8446 31.1059 14.2171 29.4233L15.1045 29.5407C14.55 29.5356 14.0035 29.4087 13.504 29.1689L14.2001 29.4259C13.9712 29.3643 13.7443 29.2956 13.5198 29.2198L15.9212 22.8507C15.904 22.8355 15.8824 22.8263 15.8596 22.8246L16.5569 23.0802C16.1094 22.8513 15.613 22.7332 15.1098 22.7359L15.9985 22.8533C24.0456 25.072 31.2406 30.0141 36.1994 36.6102C41.1975 43.1841 43.9017 51.4198 43.8113 59.6072H37.8825" fill="#ACADA9"/>
<path fill-rule="evenodd" clip-rule="evenodd" d="M30.462 16.3562C38.1126 20.7358 44.4597 27.0552 48.8566 34.6705C53.2347 42.2214 55.5037 50.9423 55.4238 59.6071H49.495C49.4176 51.9623 47.2823 44.3932 43.3473 37.8845C39.4086 31.3516 33.8055 25.9701 27.105 22.2845L30.462 16.3562" fill="#ACADA9"/>
<path fill-rule="evenodd" clip-rule="evenodd" d="M21.9247 0.512451C34.8965 3.99767 46.5456 11.9007 54.598 22.5116C58.6424 27.8139 61.7855 33.7404 63.9021 40.0551C66.007 46.3598 67.0651 52.9638 67.0349 59.6072H61.1061C61.0606 53.6212 60.0353 47.6825 58.0703 42.0246C56.1035 36.3815 53.2194 31.0978 49.533 26.3842C45.8537 21.6769 41.4275 17.5981 36.4288 14.3085C31.4403 11.0303 25.9442 8.59042 20.1603 7.08636L21.9247 0.512451" fill="#ACADA9"/>
<path fill-rule="evenodd" clip-rule="evenodd" d="M10.5455 14.9619C10.5333 13.9749 10.7182 12.9954 11.0895 12.0801C11.4608 11.1649 12.0111 10.3321 12.7085 9.6302C13.4059 8.92829 14.2364 8.37119 15.1519 7.99126C16.0674 7.61134 17.0496 7.41614 18.0415 7.417C19.0334 7.41787 20.0153 7.61477 20.9301 7.9963C21.8449 8.37782 22.6745 8.93636 23.3706 9.63949C24.0667 10.3426 24.6156 11.1763 24.9853 12.0922C25.355 13.0082 25.5381 13.988 25.5242 14.9749C25.4965 16.9344 24.6943 18.8041 23.2914 20.1794C21.8885 21.5547 19.9977 22.3248 18.0284 22.3231C16.0591 22.3214 14.1696 21.5479 12.7691 20.1702C11.3687 18.7925 10.5698 16.9214 10.5455 14.9619ZM32.7887 12.1236C32.2545 9.37005 30.9526 6.82155 29.0317 4.76942C27.1108 2.71729 24.6484 1.24432 21.926 0.518856C20.0205 0.00414276 18.0312 -0.129347 16.0735 0.126114C14.1158 0.381576 12.2284 1.02091 10.5206 2.00712C8.8053 2.9889 7.30148 4.29781 6.09534 5.85886C4.8915 7.41554 4.01384 9.1968 3.51435 11.0971C1.42492 18.8384 5.88823 26.8367 13.5132 29.2236C13.6168 29.2641 13.7203 29.2889 13.8108 29.3149C13.8239 29.3267 13.8488 29.3267 13.875 29.3267C13.9654 29.3658 14.0546 29.3906 14.1463 29.418H14.1844L14.1975 29.431C14.2237 29.4428 14.2486 29.4428 14.2879 29.4428C14.301 29.4558 14.3141 29.4558 14.3259 29.4558C14.3741 29.4806 14.4276 29.4936 14.4819 29.4936H14.4937C15.6682 29.7767 16.8558 29.9189 18.029 29.9189C20.9966 29.9189 23.8608 29.0319 26.274 27.4523C27.7059 26.5311 28.9638 25.3664 29.9901 24.0115C31.1811 22.473 32.0534 20.7147 32.5567 18.8384C33.152 16.6477 33.2314 14.3499 32.7887 12.1236ZM98.906 28.3471C94.8032 28.308 90.6505 29.0893 86.8387 30.6154C82.9963 32.1699 79.496 34.4562 76.5344 37.3458C73.5649 40.2498 71.1951 43.7038 69.5583 47.5132C67.931 51.3417 67.0737 55.4505 67.0349 59.6071H61.1061C61.0689 54.6601 62.0077 49.7539 63.8693 45.1667C67.6768 35.8737 75.0234 28.4564 84.3062 24.5332C88.928 22.5914 93.8892 21.5751 98.906 21.5423V28.3471Z" fill="#F4F4F4"/>
<path fill-rule="evenodd" clip-rule="evenodd" d="M87.7641 18.2424C78.6828 20.5719 70.3683 25.985 64.589 33.4028C61.6752 37.1186 59.3917 41.2836 57.8291 45.7328C56.2677 50.1949 55.455 54.8824 55.4238 59.6072H49.495C49.4503 54.2254 50.2961 48.8729 51.9986 43.7645C53.7086 38.6459 56.2489 33.8402 59.5187 29.538C66.0413 20.9124 75.4831 14.5224 85.9998 11.6685L87.7641 18.2424Z" fill="#F4F4F4"/>
<path fill-rule="evenodd" clip-rule="evenodd" d="M71.59 12.5085C63.2349 17.2418 56.2687 24.0666 51.3825 32.3059C46.5116 40.5142 43.8742 50.0294 43.8113 59.6072H37.8825C37.7894 49.0133 40.5526 38.3698 45.8535 29.1233C51.186 19.8108 58.8783 12.0517 68.1635 6.61938L71.59 12.5085Z" fill="#F4F4F4"/>
</g>
<defs>
<clipPath id="clip0_24_99">
<rect width="97" height="60" fill="white"/>
</clipPath>
</defs>
</svg>
