<svg width="148" height="31" viewBox="0 0 148 31" fill="none" xmlns="http://www.w3.org/2000/svg">
<path d="M48.2912 27V13.9091H53.2003C54.206 13.9091 55.0497 14.0966 55.7315 14.4716C56.4176 14.8466 56.9354 15.3622 57.2848 16.0185C57.6385 16.6705 57.8153 17.4119 57.8153 18.2429C57.8153 19.0824 57.6385 19.8281 57.2848 20.4801C56.9311 21.1321 56.4091 21.6456 55.7188 22.0206C55.0284 22.3913 54.1783 22.5767 53.1683 22.5767H49.9148V20.6271H52.8487C53.4368 20.6271 53.9183 20.5249 54.2933 20.3203C54.6683 20.1158 54.9453 19.8345 55.1243 19.4766C55.3075 19.1186 55.3991 18.7074 55.3991 18.2429C55.3991 17.7784 55.3075 17.3693 55.1243 17.0156C54.9453 16.6619 54.6662 16.3871 54.2869 16.1911C53.9119 15.9908 53.4283 15.8906 52.8359 15.8906H50.6626V27H48.2912ZM71.5726 20.4545C71.5726 21.8651 71.3084 23.0732 70.78 24.0788C70.2559 25.0803 69.54 25.8473 68.6323 26.38C67.7289 26.9126 66.704 27.179 65.5577 27.179C64.4114 27.179 63.3844 26.9126 62.4767 26.38C61.5733 25.843 60.8574 25.0739 60.329 24.0724C59.8049 23.0668 59.5428 21.8608 59.5428 20.4545C59.5428 19.044 59.8049 17.8381 60.329 16.8366C60.8574 15.831 61.5733 15.0618 62.4767 14.5291C63.3844 13.9964 64.4114 13.7301 65.5577 13.7301C66.704 13.7301 67.7289 13.9964 68.6323 14.5291C69.54 15.0618 70.2559 15.831 70.78 16.8366C71.3084 17.8381 71.5726 19.044 71.5726 20.4545ZM69.1884 20.4545C69.1884 19.4616 69.0328 18.6243 68.7218 17.9425C68.415 17.2564 67.9888 16.7386 67.4434 16.3892C66.8979 16.0355 66.2694 15.8587 65.5577 15.8587C64.8461 15.8587 64.2175 16.0355 63.6721 16.3892C63.1266 16.7386 62.6983 17.2564 62.3873 17.9425C62.0804 18.6243 61.927 19.4616 61.927 20.4545C61.927 21.4474 62.0804 22.2869 62.3873 22.973C62.6983 23.6548 63.1266 24.1726 63.6721 24.5263C64.2175 24.8757 64.8461 25.0504 65.5577 25.0504C66.2694 25.0504 66.8979 24.8757 67.4434 24.5263C67.9888 24.1726 68.415 23.6548 68.7218 22.973C69.0328 22.2869 69.1884 21.4474 69.1884 20.4545ZM84.5724 13.9091V27H82.4631L76.2947 18.0831H76.1861V27H73.8146V13.9091H75.9368L82.0987 22.8324H82.2138V13.9091H84.5724ZM95.9263 18.0895C95.8198 17.7443 95.6728 17.4354 95.4853 17.1626C95.302 16.8857 95.0804 16.6491 94.8205 16.4531C94.5648 16.2571 94.2708 16.1101 93.9384 16.0121C93.606 15.9098 93.2438 15.8587 92.8517 15.8587C92.1486 15.8587 91.5222 16.0355 90.9725 16.3892C90.4228 16.7429 89.9902 17.2628 89.6749 17.9489C89.3638 18.6307 89.2083 19.4616 89.2083 20.4418C89.2083 21.4304 89.3638 22.2678 89.6749 22.9538C89.986 23.6399 90.4185 24.1619 90.9725 24.5199C91.5265 24.8736 92.1699 25.0504 92.9029 25.0504C93.5676 25.0504 94.1429 24.9226 94.6287 24.6669C95.1188 24.4112 95.4959 24.049 95.7601 23.5803C96.0243 23.1072 96.1564 22.5533 96.1564 21.9183L96.6934 22.0014H93.1394V20.1477H98.4512V21.7202C98.4512 22.8409 98.2125 23.8104 97.7353 24.6286C97.258 25.4467 96.6017 26.0774 95.7665 26.5206C94.9313 26.9595 93.9725 27.179 92.8901 27.179C91.6841 27.179 90.6252 26.9084 89.7132 26.3672C88.8056 25.8217 88.0961 25.0483 87.5847 24.0469C87.0776 23.0412 86.824 21.848 86.824 20.4673C86.824 19.4105 86.9732 18.4666 87.2715 17.6357C87.574 16.8047 87.9959 16.0994 88.5371 15.5199C89.0783 14.9361 89.7132 14.4929 90.4419 14.1903C91.1706 13.8835 91.9632 13.7301 92.8198 13.7301C93.5442 13.7301 94.2196 13.8366 94.8461 14.0497C95.4725 14.2585 96.0286 14.5568 96.5144 14.9446C97.0044 15.3324 97.4071 15.7926 97.7225 16.3253C98.0378 16.858 98.2445 17.446 98.3425 18.0895H95.9263ZM107.859 17.5078C107.799 16.9496 107.548 16.5149 107.104 16.2038C106.665 15.8928 106.094 15.7372 105.391 15.7372C104.897 15.7372 104.473 15.8118 104.119 15.9609C103.766 16.1101 103.495 16.3125 103.308 16.5682C103.12 16.8239 103.024 17.1158 103.02 17.4439C103.02 17.7166 103.082 17.9531 103.205 18.1534C103.333 18.3537 103.506 18.5241 103.723 18.6648C103.94 18.8011 104.181 18.9162 104.445 19.0099C104.71 19.1037 104.976 19.1825 105.244 19.2464L106.472 19.5533C106.966 19.6683 107.441 19.8239 107.897 20.0199C108.357 20.2159 108.768 20.4631 109.131 20.7614C109.497 21.0597 109.787 21.4197 110 21.8416C110.213 22.2635 110.32 22.7578 110.32 23.3246C110.32 24.0916 110.124 24.767 109.732 25.3509C109.339 25.9304 108.773 26.3842 108.031 26.7124C107.294 27.0362 106.401 27.1982 105.353 27.1982C104.335 27.1982 103.45 27.0405 102.7 26.7251C101.955 26.4098 101.371 25.9496 100.949 25.3445C100.531 24.7393 100.305 24.0021 100.271 23.1328H102.604C102.638 23.5888 102.779 23.968 103.026 24.2706C103.273 24.5732 103.595 24.799 103.991 24.9482C104.392 25.0973 104.839 25.1719 105.334 25.1719C105.849 25.1719 106.301 25.0952 106.689 24.9418C107.081 24.7841 107.388 24.5668 107.609 24.2898C107.831 24.0085 107.944 23.6804 107.948 23.3054C107.944 22.9645 107.844 22.6832 107.648 22.4616C107.452 22.2358 107.177 22.0483 106.823 21.8991C106.474 21.7457 106.065 21.6094 105.596 21.4901L104.107 21.1065C103.028 20.8295 102.176 20.4098 101.55 19.8473C100.928 19.2805 100.616 18.5284 100.616 17.5909C100.616 16.8196 100.825 16.1442 101.243 15.5646C101.665 14.9851 102.238 14.5355 102.962 14.2159C103.687 13.892 104.507 13.7301 105.423 13.7301C106.352 13.7301 107.166 13.892 107.865 14.2159C108.568 14.5355 109.12 14.9808 109.521 15.5518C109.921 16.1186 110.128 16.7706 110.141 17.5078H107.859ZM111.858 15.897V13.9091H122.303V15.897H118.257V27H115.905V15.897H111.858ZM124.317 27V13.9091H132.831V15.897H126.688V19.451H132.39V21.4389H126.688V25.0121H132.882V27H124.317ZM135.25 27V13.9091H140.159C141.165 13.9091 142.009 14.0838 142.691 14.4332C143.377 14.7827 143.894 15.2727 144.244 15.9034C144.597 16.5298 144.774 17.2607 144.774 18.0959C144.774 18.9354 144.595 19.6641 144.237 20.282C143.884 20.8956 143.362 21.3707 142.671 21.7074C141.981 22.0398 141.133 22.206 140.127 22.206H136.631V20.2372H139.808C140.396 20.2372 140.877 20.1562 141.252 19.9943C141.627 19.8281 141.904 19.5874 142.083 19.272C142.267 18.9524 142.358 18.5604 142.358 18.0959C142.358 17.6314 142.267 17.2351 142.083 16.907C141.9 16.5746 141.621 16.3232 141.246 16.1527C140.871 15.978 140.387 15.8906 139.795 15.8906H137.622V27H135.25ZM142.013 21.0682L145.254 27H142.607L139.424 21.0682H142.013Z" fill="white"/>
<g clip-path="url(#clip0_58_3)">
<path fill-rule="evenodd" clip-rule="evenodd" d="M16.3068 26.9925C16.2752 23.8775 15.1836 20.8107 13.2452 18.383C11.3211 15.9466 8.57822 14.1669 5.57195 13.4097L5.97449 13.4626C5.72296 13.4603 5.47504 13.4032 5.24849 13.2953L5.56422 13.4109C5.46039 13.3832 5.35748 13.3523 5.25562 13.3182L6.34492 10.4521C6.33716 10.4452 6.32734 10.4411 6.31698 10.4403L6.6333 10.5554C6.4303 10.4523 6.20512 10.3992 5.97687 10.4004L6.38 10.4532C10.0302 11.4517 13.294 13.6756 15.5433 16.6439C17.8105 19.6021 19.0371 23.3082 18.9961 26.9925H16.3068Z" fill="#ADF0D1"/>
<path fill-rule="evenodd" clip-rule="evenodd" d="M12.9408 7.52954C16.4111 9.50035 19.2902 12.3441 21.2847 15.771C23.2706 19.1689 24.2999 23.0933 24.2636 26.9924H21.5743C21.5392 23.5523 20.5706 20.1462 18.7856 17.2173C16.999 14.2775 14.4574 11.8558 11.418 10.1973L12.9408 7.52954Z" fill="#ADF0D1"/>
<path fill-rule="evenodd" clip-rule="evenodd" d="M9.06816 0.399658C14.9523 1.96801 20.2364 5.52438 23.889 10.2993C25.7236 12.6853 27.1494 15.3522 28.1095 18.1938C29.0643 21.031 29.5442 24.0027 29.5305 26.9923H26.8412C26.8206 24.2986 26.3554 21.6262 25.4641 19.0801C24.572 16.5407 23.2637 14.1631 21.5915 12.0419C19.9226 9.92365 17.9148 8.08821 15.6473 6.6079C13.3845 5.13271 10.8915 4.03474 8.26784 3.35792L9.06816 0.399658Z" fill="#ADF0D1"/>
<path fill-rule="evenodd" clip-rule="evenodd" d="M3.90649 6.90204C3.90094 6.45792 3.98481 6.01712 4.15324 5.60526C4.32167 5.19339 4.57129 4.81864 4.88762 4.50278C5.20395 4.18692 5.58069 3.93623 5.99596 3.76526C6.41123 3.59429 6.85677 3.50645 7.30671 3.50684C7.75666 3.50723 8.20204 3.59584 8.61701 3.76752C9.03198 3.93921 9.40827 4.19055 9.72404 4.50696C10.0398 4.82337 10.2888 5.19854 10.4565 5.6107C10.6242 6.02286 10.7073 6.4638 10.7009 6.90791C10.6883 7.78966 10.3245 8.63104 9.68812 9.24992C9.05175 9.86879 8.19408 10.2154 7.30077 10.2146C6.40746 10.2138 5.5504 9.86576 4.91513 9.24579C4.27986 8.62582 3.9175 7.78381 3.90649 6.90204ZM13.9962 5.62483C13.7538 4.38571 13.1633 3.23889 12.2919 2.31543C11.4206 1.39197 10.3037 0.729134 9.06876 0.402675C8.20439 0.171054 7.30206 0.110983 6.41401 0.225941C5.52596 0.340899 4.66984 0.628601 3.89519 1.07239C3.1171 1.51419 2.43495 2.1032 1.88784 2.80568C1.34176 3.50618 0.943652 4.30775 0.71708 5.16289C-0.230704 8.64648 1.79389 12.2457 5.25265 13.3198C5.29962 13.338 5.34659 13.3492 5.38762 13.3609C5.39357 13.3662 5.40486 13.3662 5.41676 13.3662C5.45778 13.3838 5.49822 13.395 5.53984 13.4073H5.55708L5.56303 13.4132C5.57492 13.4184 5.58622 13.4184 5.60405 13.4184C5.61 13.4243 5.61594 13.4243 5.6213 13.4243C5.64317 13.4355 5.66743 13.4413 5.69205 13.4413H5.6974C6.23016 13.5687 6.76886 13.6327 7.30103 13.6327C8.64719 13.6327 9.94638 13.2335 11.041 12.5227C11.6906 12.1082 12.2612 11.5841 12.7267 10.9744C13.2669 10.282 13.6626 9.49081 13.8909 8.64648C14.161 7.66066 14.197 6.62663 13.9962 5.62483ZM43.9875 12.9254C42.1264 12.9078 40.2428 13.2594 38.5137 13.9461C36.7708 14.6457 35.183 15.6745 33.8396 16.9748C32.4926 18.2816 31.4176 19.8359 30.6751 21.5501C29.937 23.273 29.5481 25.1219 29.5305 26.9924H26.8412C26.8243 24.7662 27.2502 22.5585 28.0946 20.4942C29.8217 16.3124 33.1542 12.9746 37.3649 11.2091C39.4614 10.3353 41.7118 9.87799 43.9875 9.86324V12.9254Z" fill="white"/>
<path fill-rule="evenodd" clip-rule="evenodd" d="M38.9335 8.37818C34.8141 9.42649 31.0426 11.8624 28.421 15.2004C27.0993 16.8725 26.0635 18.7467 25.3547 20.7489C24.6464 22.7568 24.2778 24.8662 24.2636 26.9923H21.5743C21.554 24.5705 21.9377 22.1619 22.7099 19.8632C23.4856 17.5598 24.6379 15.3972 26.1211 13.4612C29.0798 9.57968 33.3627 6.70418 38.1331 5.41992L38.9335 8.37818Z" fill="white"/>
<path fill-rule="evenodd" clip-rule="evenodd" d="M31.5968 5.79806C27.8068 7.92804 24.6469 10.9992 22.4305 14.7069C20.221 18.4006 19.0246 22.6824 18.9961 26.9925H16.3068C16.2645 22.2252 17.5179 17.4356 19.9225 13.2747C22.3413 9.08409 25.8306 5.59249 30.0425 3.14795L31.5968 5.79806Z" fill="white"/>
</g>
<defs>
<clipPath id="clip0_58_3">
<rect width="44" height="27" fill="white"/>
</clipPath>
</defs>
</svg>
